<?xml version="1.0" encoding="UTF-8" standalone="no"?>
<!-- Created with Inkscape (http://www.inkscape.org/) -->

<svg
   width="11.115214mm"
   height="11.115214mm"
   viewBox="0 0 11.115214 11.115214"
   version="1.1"
   id="svg5"
   xml:space="preserve"
   inkscape:version="1.2.2 (b0a8486541, 2022-12-01)"
   sodipodi:docname="api.svg"
   xmlns:inkscape="http://www.inkscape.org/namespaces/inkscape"
   xmlns:sodipodi="http://sodipodi.sourceforge.net/DTD/sodipodi-0.dtd"
   xmlns="http://www.w3.org/2000/svg"
   xmlns:svg="http://www.w3.org/2000/svg"><sodipodi:namedview
     id="namedview7"
     pagecolor="#505050"
     bordercolor="#ffffff"
     borderopacity="1"
     inkscape:showpageshadow="0"
     inkscape:pageopacity="0"
     inkscape:pagecheckerboard="1"
     inkscape:deskcolor="#505050"
     inkscape:document-units="mm"
     showgrid="false"
     inkscape:zoom="3.0859147"
     inkscape:cx="48.445928"
     inkscape:cy="-18.14697"
     inkscape:window-width="1499"
     inkscape:window-height="773"
     inkscape:window-x="1972"
     inkscape:window-y="849"
     inkscape:window-maximized="0"
     inkscape:current-layer="layer1" /><defs
     id="defs2" /><g
     inkscape:label="Layer 1"
     inkscape:groupmode="layer"
     id="layer1"
     transform="translate(-101.78766,-132.31076)"><path
       style="fill:#000000;stroke-width:0.0217094"
       d="m 104.32872,142.64704 c -0.48342,-0.17937 -0.6704,-0.75509 -0.38493,-1.18518 0.0851,-0.12818 0.17082,-0.20136 0.32187,-0.27475 l 0.10066,-0.0489 v -0.37628 c 0,-0.43733 0.0179,-0.50936 0.13963,-0.5602 0.0602,-0.0251 0.19415,-0.0318 0.64121,-0.0318 h 0.56514 v -0.37991 -0.37992 h -0.7007 c -0.38538,0 -0.78348,-0.0103 -0.88465,-0.0229 -0.63331,-0.0789 -1.16267,-0.45539 -1.44292,-1.02611 -0.14922,-0.3039 -0.17394,-0.42203 -0.17341,-0.82882 4.4e-4,-0.34218 0.002,-0.35064 0.0782,-0.56889 0.12333,-0.35158 0.29741,-0.60616 0.57301,-0.838 0.16701,-0.1405 0.51785,-0.32482 0.69279,-0.36397 l 0.11011,-0.0247 0.002,-0.27455 c 0.002,-0.30004 0.0269,-0.46297 0.11046,-0.72949 0.24438,-0.77985 0.89725,-1.4019 1.68985,-1.61008 0.28942,-0.076 0.75563,-0.0952 1.03525,-0.0427 0.51722,0.0972 0.93384,0.31685 1.29801,0.68434 0.10149,0.10242 0.2227,0.24544 0.26935,0.31781 l 0.0848,0.1316 0.23279,-0.01 c 0.27832,-0.0115 0.4657,0.0178 0.71544,0.1118 0.41386,0.15574 0.74089,0.46074 0.9404,0.87706 0.041,0.0855 0.0797,0.17545 0.0861,0.19989 0.008,0.0293 0.0295,0.0445 0.0638,0.0445 0.0815,0 0.36265,0.0789 0.5059,0.142 0.31643,0.13937 0.66997,0.43913 0.86428,0.7328 0.10576,0.15982 0.19619,0.35919 0.25486,0.56179 0.0578,0.1998 0.0814,0.67002 0.0435,0.87001 -0.1496,0.79082 -0.70341,1.38977 -1.47531,1.59558 -0.20207,0.0539 -0.23482,0.056 -1.00669,0.0654 l -0.79782,0.01 v 0.38856 0.38857 h 0.60377 c 0.78561,0 0.74222,-0.0335 0.74222,0.57239 v 0.37417 l 0.10066,0.0489 c 0.22088,0.10731 0.36674,0.27995 0.43266,0.51207 0.0989,0.34839 -0.0874,0.7538 -0.42203,0.91818 -0.10868,0.0534 -0.14609,0.06 -0.33924,0.06 -0.19219,0 -0.23079,-0.007 -0.3365,-0.0588 -0.49447,-0.24356 -0.60769,-0.88777 -0.22355,-1.27192 0.0576,-0.0576 0.15593,-0.12789 0.21844,-0.15614 l 0.11366,-0.0514 v -0.25665 -0.25664 h -0.58723 c -0.63755,0 -0.68197,-0.007 -0.73282,-0.11879 -0.0178,-0.0391 -0.0259,-0.22001 -0.0259,-0.57693 v -0.52001 h -0.4559 -0.4559 v 0.86543 0.86543 l 0.0981,0.0375 c 0.13486,0.0515 0.32199,0.2283 0.39106,0.36946 0.19616,0.40094 0.0263,0.88272 -0.37797,1.07229 -0.10498,0.0492 -0.15077,0.0572 -0.32824,0.0572 -0.17747,0 -0.22326,-0.008 -0.32825,-0.0572 -0.16572,-0.0777 -0.28078,-0.18706 -0.36766,-0.34944 -0.0638,-0.11927 -0.0739,-0.16024 -0.0813,-0.33147 -0.007,-0.16354 -4.8e-4,-0.21661 0.0405,-0.32564 0.0623,-0.1655 0.26398,-0.37546 0.41643,-0.43343 l 0.10312,-0.0392 v -0.86543 -0.86543 h -0.45589 -0.4559 v 0.53406 0.53405 l -0.0738,0.0738 -0.0738,0.0738 h -0.59918 -0.59918 v 0.25664 0.25665 l 0.11366,0.0514 c 0.14766,0.0667 0.30821,0.22891 0.38157,0.38544 0.0508,0.10834 0.0583,0.15131 0.0576,0.33076 -6.9e-4,0.18028 -0.008,0.22191 -0.0612,0.3308 -0.0765,0.15782 -0.21869,0.30057 -0.37615,0.37761 -0.16508,0.0808 -0.43874,0.0951 -0.609,0.0319 z m 0.3642,-0.41462 c 0.0423,-0.0118 0.11008,-0.0556 0.15057,-0.0973 0.0633,-0.0653 0.0749,-0.0941 0.083,-0.20524 0.0116,-0.15994 -0.043,-0.26261 -0.17537,-0.33016 -0.22352,-0.11403 -0.49331,0.0539 -0.49331,0.307 0,0.13174 0.0665,0.23374 0.19473,0.2985 0.10869,0.0549 0.13149,0.0575 0.24042,0.0272 z m 2.80035,-0.0523 c 0.0554,-0.0366 0.0936,-0.0856 0.11923,-0.15263 0.14003,-0.36667 -0.34571,-0.64501 -0.58291,-0.33403 -0.0827,0.10842 -0.096,0.23136 -0.0379,0.35126 0.0975,0.20137 0.31372,0.25974 0.50161,0.1354 z m 2.6484,0.0251 c 0.14216,-0.0718 0.20068,-0.17067 0.19016,-0.3212 -0.01,-0.13875 -0.0557,-0.21362 -0.17206,-0.27977 -0.2214,-0.1259 -0.49636,0.0346 -0.49636,0.28982 0,0.19961 0.14154,0.34987 0.33733,0.35813 0.0243,0.001 0.0877,-0.0201 0.14093,-0.047 z m 0.3639,-3.28485 c 0.45179,-0.0915 0.86696,-0.41116 1.06958,-0.82365 0.11884,-0.24196 0.15858,-0.41193 0.15988,-0.68385 0.002,-0.42039 -0.13734,-0.77192 -0.42767,-1.0789 -0.25683,-0.27156 -0.60897,-0.43404 -1.02807,-0.47438 -0.0851,-0.008 -0.16406,-0.0211 -0.17536,-0.0286 -0.0113,-0.008 -0.0476,-0.10165 -0.0806,-0.20912 -0.0841,-0.27353 -0.17458,-0.43334 -0.33821,-0.59723 -0.20792,-0.20825 -0.48519,-0.34105 -0.79239,-0.37952 -0.0952,-0.0119 -0.4463,0.0264 -0.60346,0.0658 -0.0478,0.012 -0.0627,-0.004 -0.15266,-0.1595 -0.27891,-0.48355 -0.64741,-0.79488 -1.1326,-0.95689 -0.94434,-0.31532 -1.96768,0.11969 -2.39773,1.01926 -0.17445,0.36489 -0.22867,0.76023 -0.16805,1.22519 0.0171,0.13134 0.025,0.24491 0.0176,0.25238 -0.007,0.007 -0.11108,0.0308 -0.2303,0.0518 -0.11923,0.021 -0.26967,0.0564 -0.33432,0.0786 -0.65641,0.22584 -1.05884,0.9129 -0.92736,1.5833 0.084,0.42845 0.3701,0.80717 0.75119,0.99446 0.32541,0.15992 0.12115,0.1511 3.54497,0.15302 2.70765,0.002 3.09837,-0.002 3.24556,-0.0321 z m -5.74848,-0.75585 c 0,-0.0123 0.75791,-2.09445 0.79266,-2.17762 l 0.0301,-0.072 h 0.1947 0.19469 l 0.0347,0.0923 c 0.0191,0.0507 0.20425,0.55874 0.41146,1.12888 l 0.37674,1.03663 h -0.20975 -0.20974 l -0.096,-0.29353 -0.096,-0.29353 -0.41144,0.006 -0.41144,0.006 -0.0959,0.28765 -0.0959,0.28765 h -0.20443 c -0.11244,0 -0.20443,-0.004 -0.20443,-0.008 z m 1.30277,-0.9199 c 3.4e-4,-0.0278 -0.26673,-0.79677 -0.2834,-0.81595 -0.009,-0.01 -0.0796,0.1732 -0.15768,0.40705 l -0.14193,0.42518 h 0.2914 c 0.16027,0 0.29149,-0.007 0.29161,-0.0163 z m 0.91682,-0.19538 0.006,-1.12346 0.48846,8.4e-4 c 0.55868,9.6e-4 0.65479,0.019 0.83582,0.15691 0.0786,0.0599 0.12948,0.12375 0.18453,0.23172 0.0712,0.13973 0.076,0.16206 0.076,0.35786 0,0.19237 -0.006,0.22028 -0.0716,0.35432 -0.0829,0.16834 -0.20356,0.27906 -0.37763,0.34645 -0.0907,0.0351 -0.18331,0.0469 -0.43539,0.0556 l -0.32021,0.011 v 0.36611 0.36611 h -0.19558 -0.19558 l 0.006,-1.12346 z m 1.01504,-0.0175 c 0.29384,-0.17262 0.23206,-0.66252 -0.0939,-0.7446 -0.0544,-0.0137 -0.19718,-0.0249 -0.31727,-0.0249 h -0.21833 v 0.41466 0.41466 l 0.27679,-0.008 c 0.2312,-0.006 0.2893,-0.0149 0.35271,-0.0522 z m 0.83026,0.0175 0.006,-1.12346 h 0.19539 0.19538 l 0.006,1.12346 0.006,1.12346 h -0.20663 -0.20663 z"
       id="path248" /></g></svg>
