<?xml version="1.0" encoding="UTF-8" standalone="no"?>
<!-- Created with Inkscape (http://www.inkscape.org/) -->

<svg
   width="9.2536621mm"
   height="14.828031mm"
   viewBox="0 0 9.2536621 14.828031"
   version="1.1"
   id="svg5"
   xml:space="preserve"
   xmlns:inkscape="http://www.inkscape.org/namespaces/inkscape"
   xmlns:sodipodi="http://sodipodi.sourceforge.net/DTD/sodipodi-0.dtd"
   xmlns="http://www.w3.org/2000/svg"
   xmlns:svg="http://www.w3.org/2000/svg"><sodipodi:namedview
     id="namedview7"
     pagecolor="#505050"
     bordercolor="#ffffff"
     borderopacity="1"
     inkscape:showpageshadow="0"
     inkscape:pageopacity="0"
     inkscape:pagecheckerboard="1"
     inkscape:deskcolor="#505050"
     inkscape:document-units="mm"
     showgrid="false" /><defs
     id="defs2" /><g
     inkscape:label="scissors"
     inkscape:groupmode="layer"
     id="layer1"
     transform="translate(-21.33739,-171.44019)"
     style="display:inline"><path
       style="fill:#000000;stroke-width:0.0581948"
       d="m 25.260542,186.21984 c -1.746185,-0.25434 -3.173967,-1.49982 -3.761746,-3.28141 -0.128905,-0.39071 -0.135263,-0.49653 -0.155651,-2.58967 -0.01488,-1.52667 -0.0013,-2.24956 0.04534,-2.40621 0.09041,-0.30401 0.476251,-0.70841 0.790348,-0.82837 0.187981,-0.0718 0.365503,-0.0904 0.660365,-0.0694 0.388708,0.0278 0.404552,0.0237 0.438625,-0.11204 0.05611,-0.22354 0.481462,-0.64219 0.760906,-0.7489 0.395263,-0.15096 0.946391,-0.0964 1.261098,0.12476 0.40323,0.28339 0.576784,0.62562 0.61319,1.20918 l 0.03076,0.4932 0.210338,-0.0324 c 0.115692,-0.0178 0.219969,-0.0406 0.231744,-0.0504 0.01181,-0.009 -0.297548,-1.21738 -0.687376,-2.68327 -0.520312,-1.95656 -0.741473,-2.70007 -0.831729,-2.79619 -0.259687,-0.27656 -0.800998,-0.0668 -0.800998,0.3104 0,0.0856 0.117848,0.59976 0.261876,1.14254 0.144032,0.54278 0.261876,1.01779 0.261876,1.05555 0,0.064 -0.747828,0.29841 -0.796492,0.24975 -0.06294,-0.063 -0.600136,-2.21827 -0.599857,-2.40675 4.4e-4,-0.35124 0.09956,-0.61677 0.330814,-0.88696 0.420814,-0.49162 1.06932,-0.61148 1.654488,-0.30578 0.495397,0.2588 0.564145,0.4164 1.16054,2.66067 0.288229,1.08462 0.530615,1.9786 0.538634,1.98662 0.008,0.008 0.255875,-0.89416 0.550789,-2.00484 0.604027,-2.27484 0.650803,-2.38033 1.172772,-2.64502 0.878353,-0.44541 1.849019,0.0747 1.962174,1.05148 0.02602,0.22468 -0.08168,0.69733 -0.614262,2.69548 -0.355201,1.33268 -0.64582,2.4653 -0.64582,2.51693 0,0.0807 0.09023,0.0939 0.643881,0.0939 h 0.643883 l -0.02163,2.22595 c -0.02292,2.36008 -0.02403,2.37074 -0.333967,3.19909 -0.06817,0.1822 -0.25171,0.527 -0.407865,0.76619 -0.992075,1.51971 -2.776142,2.3267 -4.567057,2.06584 z m 1.714955,-0.95692 c 0.968319,-0.288 1.882669,-1.05506 2.319949,-1.94621 0.36888,-0.75178 0.413027,-1.06035 0.414197,-2.8952 l 0.0011,-1.58581 h -1.748489 -1.748491 l -0.142841,0.14284 c -0.184931,0.18494 -0.185916,0.44069 -0.0025,0.6541 l 0.14032,0.16328 1.023576,0.0182 1.023576,0.0182 v 0.42457 0.42457 l -0.326871,0.0338 c -0.613393,0.0634 -1.274478,0.49702 -1.643408,1.07815 -0.186553,0.29386 -0.357515,0.80466 -0.357515,1.06816 v 0.16403 h -0.436463 -0.436459 l 8.8e-4,-0.18913 c 0.0026,-0.57895 0.34927,-1.41187 0.790305,-1.89902 l 0.242577,-0.26792 -0.29313,-0.1603 -0.293131,-0.1603 -0.325262,0.15913 c -0.442253,0.21638 -0.859696,0.21254 -1.271671,-0.0119 l -0.297672,-0.16201 -0.194881,0.12046 c -0.28146,0.17394 -0.696351,0.25428 -0.981886,0.19013 l -0.237697,-0.0534 0.02357,0.91152 c 0.01894,0.73252 0.0482,0.98579 0.148968,1.28976 0.421602,1.27184 1.485863,2.22427 2.834533,2.53666 0.432754,0.10023 1.326564,0.0667 1.774941,-0.0667 z m 0.349169,-2.2081 v -0.43646 h 0.465558 0.465558 v 0.43646 0.43646 h -0.465558 -0.465558 z m -4.417417,-3.31989 c 0.233347,-0.12066 0.285585,-0.28637 0.285585,-0.90591 0,-0.54355 -0.08176,-0.81818 -0.264485,-0.88828 -0.193981,-0.0744 -0.457682,-0.034 -0.590137,0.0904 -0.125842,0.1182 -0.134689,0.17106 -0.134689,0.80458 0,0.62908 0.0095,0.68667 0.130939,0.79719 0.123076,0.11204 0.245112,0.17697 0.352058,0.18754 0.0256,0.002 0.124923,-0.0359 0.220729,-0.0855 z m 2.002332,-0.0897 c 0.106113,-0.10409 0.118015,-0.20481 0.134803,-1.14086 0.01018,-0.56467 0.0029,-1.08843 -0.01603,-1.16391 -0.09508,-0.37882 -0.609419,-0.50939 -0.841986,-0.21371 -0.112498,0.14302 -0.120612,0.22841 -0.120612,1.27013 0,1.08408 0.0039,1.1203 0.130936,1.23594 0.07202,0.0655 0.17022,0.13402 0.218231,0.15224 0.135371,0.0515 0.366321,-0.0139 0.494657,-0.13983 z m 3.462592,-1.71473 c 0,-0.0178 0.301157,-1.16465 0.669239,-2.54872 0.368082,-1.38406 0.66924,-2.57539 0.66924,-2.64738 0,-0.19268 -0.250849,-0.41658 -0.466738,-0.41658 -0.244246,0 -0.377291,0.08 -0.455927,0.2742 -0.08301,0.205 -1.405127,5.18343 -1.405127,5.29102 0,0.0612 0.114791,0.0797 0.494657,0.0797 0.272059,0 0.494656,-0.0145 0.494656,-0.0322 z"
       id="path302"
       sodipodi:nodetypes="ssscsssssscsssssssscsssssssssscssssscsccccsscccccsssccccscccsscsscssscccccccccccsssssssssscssssssssssssss" /></g><g
     inkscape:groupmode="layer"
     id="layer2"
     inkscape:label="paper"
     style="display:inline"><path
       d="m 25.134326,186.27697 c -1.826286,-0.34925 -3.195903,-1.62698 -3.660966,-3.41536 -0.10533,-0.40505 -0.113665,-0.57962 -0.133966,-2.80559 -0.01503,-1.64808 -0.0037,-2.46042 0.03727,-2.65745 0.07856,-0.3784 0.299463,-0.67199 0.632685,-0.84085 0.229212,-0.11615 0.32052,-0.13338 0.617701,-0.11659 l 0.348728,0.0197 0.02071,-0.80623 c 0.01821,-0.70916 0.03505,-0.83577 0.139772,-1.05167 0.13115,-0.27036 0.354443,-0.48383 0.624461,-0.59696 0.179289,-0.0751 0.651297,-0.0992 0.830457,-0.0423 0.07885,0.025 0.12214,-0.0163 0.212413,-0.20279 0.205707,-0.42493 0.597659,-0.66295 1.08968,-0.66172 0.50136,10e-4 0.85314,0.21131 1.069759,0.63878 0.107079,0.21131 0.150225,0.2532 0.233574,0.22675 0.181951,-0.0578 0.65297,-0.0344 0.83366,0.0413 0.2695,0.11292 0.493061,0.32629 0.625461,0.59696 0.10972,0.22431 0.121727,0.32927 0.139461,1.21907 l 0.01941,0.97363 h -0.395049 -0.395051 v -0.8325 c 0,-0.95742 -0.04661,-1.14443 -0.307919,-1.23552 -0.190221,-0.0663 -0.346969,-0.0202 -0.496946,0.14616 -0.09978,0.11069 -0.104447,0.19954 -0.119002,2.26478 l -0.01515,2.14957 h -0.361322 -0.36132 v -2.48474 c 0,-1.72002 -0.01815,-2.53679 -0.05896,-2.65386 -0.130343,-0.3739 -0.686428,-0.3739 -0.816774,0 -0.04081,0.11707 -0.05895,0.93384 -0.05895,2.65386 v 2.48474 h -0.36132 -0.36132 l -0.01515,-2.14957 c -0.01456,-2.06524 -0.01921,-2.15409 -0.119002,-2.26478 -0.243938,-0.2706 -0.633847,-0.21489 -0.745912,0.10658 -0.04081,0.11707 -0.05895,0.93384 -0.05895,2.65386 v 2.48474 h -0.389451 -0.38945 v -1.34105 c 0,-1.33464 -5.89e-4,-1.34158 -0.120183,-1.45395 -0.118187,-0.11103 -0.353488,-0.14707 -0.526576,-0.0806 -0.22371,0.0858 -0.235997,0.21496 -0.235997,2.47986 0,2.28065 0.0321,2.73682 0.233683,3.32106 0.187121,0.54233 0.422951,0.89874 0.934657,1.41256 0.378926,0.38049 0.550865,0.51035 0.90873,0.68637 0.637563,0.31358 1.005004,0.39917 1.713585,0.39917 0.406194,0 0.705094,-0.0291 0.934682,-0.091 1.472537,-0.3972 2.59027,-1.664 2.800251,-3.1737 0.03065,-0.22035 0.05572,-1.18291 0.05572,-2.13901 0,-2.06925 -0.0064,-2.0967 -0.4885,-2.0967 -0.108474,0 -0.208266,0.0424 -0.280287,0.11905 -0.106319,0.11317 -0.112535,0.17406 -0.125888,1.23326 l -0.01405,1.11422 -0.476991,0.0302 c -0.390975,0.0247 -0.536217,0.0593 -0.805415,0.19186 -0.632809,0.31153 -1.122327,0.98083 -1.174114,1.60531 l -0.02286,0.27569 H 25.907909 25.51778 l 0.027,-0.32454 c 0.100308,-1.20582 1.043341,-2.21539 2.336908,-2.50179 l 0.1428,-0.0316 0.0012,-0.7909 c 9.82e-4,-0.65956 0.01715,-0.82538 0.09751,-0.9986 0.299908,-0.64637 1.088454,-0.89774 1.705737,-0.54373 0.149901,0.086 0.330094,0.24348 0.400425,0.35002 0.225961,0.34229 0.246933,0.59735 0.222106,2.7012 -0.02112,1.78953 -0.03271,1.99542 -0.134608,2.39014 -0.42586,1.64968 -1.684224,2.91895 -3.304885,3.33353 -0.538642,0.13779 -1.390745,0.17493 -1.877592,0.0818 z m 2.422822,-3.63958 v -0.38945 h 0.415415 0.415415 v 0.38945 0.38946 h -0.415415 -0.415415 z"
       style="fill:#000000;stroke-width:0.0519267"
       id="path446"
       transform="translate(-21.33739,-171.44019)" /></g><g
     inkscape:groupmode="layer"
     id="layer3"
     inkscape:label="rock"
     style="display:inline"><path
       d="m 24.94698,186.13377 c -1.247705,-0.27135 -2.443906,-1.18575 -3.026301,-2.31337 -0.344193,-0.66642 -0.495406,-1.22301 -0.537969,-1.98014 L 21.348,181.22285 h 0.439354 0.439355 l 9.98e-4,0.41639 c 0.0033,1.39069 0.774903,2.676 1.980453,3.29911 0.612241,0.31644 1.061165,0.42568 1.742212,0.42394 1.066138,-0.003 1.822035,-0.32132 2.596047,-1.09417 0.371659,-0.3711 0.541239,-0.59367 0.701134,-0.92024 0.352221,-0.71937 0.386247,-0.96793 0.387204,-2.82859 l 8.68e-4,-1.65121 h -1.6987 -1.6987 l -0.167883,0.16788 c -0.09234,0.0923 -0.167882,0.22285 -0.167882,0.29002 0,0.0974 0.12909,0.42138 0.188135,0.4721 0.0071,0.006 0.491014,0.0255 1.075399,0.0431 l 1.062516,0.032 0.01667,0.40583 0.01665,0.40583 -0.349569,0.065 c -1.038106,0.19305 -1.856191,1.01526 -1.977683,1.98765 l -0.04038,0.32323 h -0.426622 c -0.495165,0 -0.483788,0.0221 -0.33984,-0.66048 0.109738,-0.52037 0.365489,-1.03564 0.697104,-1.40447 0.145524,-0.16186 0.254825,-0.29974 0.242895,-0.30641 -0.533736,-0.29821 -0.598449,-0.31697 -0.742273,-0.21512 -0.394396,0.27929 -0.924552,0.30628 -1.391345,0.0708 -0.303059,-0.15287 -0.325654,-0.15616 -0.453201,-0.066 -0.700585,0.49542 -1.738549,0.14958 -2.033745,-0.67761 -0.112482,-0.3152 -0.106496,-1.47265 0.0094,-1.81272 0.223229,-0.65514 1.069325,-1.05587 1.710138,-0.80998 0.04036,0.0155 0.113403,-0.0707 0.171494,-0.20238 0.150026,-0.34004 0.557313,-0.67245 0.924644,-0.75466 0.35831,-0.0802 0.799018,9e-5 1.039647,0.18937 l 0.147975,0.1164 0.2978,-0.16376 c 0.410417,-0.22568 0.869335,-0.22986 1.289721,-0.0118 l 0.297925,0.15457 0.245293,-0.13588 c 0.332928,-0.18442 0.617629,-0.22745 0.960596,-0.14517 0.648289,0.15552 1.036411,0.67617 1.036411,1.3903 v 0.39076 h 0.462535 0.462534 l -0.01999,2.25426 c -0.02258,2.54522 -0.02483,2.56169 -0.473794,3.46035 -0.586484,1.17394 -1.695125,2.06031 -2.98189,2.38405 -0.536706,0.13504 -1.52833,0.14863 -2.080582,0.0285 z m -1.884875,-6.43029 c 0.132775,-0.13278 0.140973,-0.17812 0.140973,-0.77977 0,-0.62946 -0.0025,-0.64125 -0.167882,-0.80668 -0.217844,-0.21784 -0.422758,-0.21784 -0.640602,0 -0.165429,0.16543 -0.167882,0.17722 -0.167882,0.80668 0,0.60165 0.0082,0.64699 0.140972,0.77977 0.09733,0.0973 0.20482,0.14097 0.347211,0.14097 0.142391,0 0.24988,-0.0436 0.34721,-0.14097 z m 1.837866,0 c 0.140013,-0.14002 0.140973,-0.14858 0.140973,-1.25843 v -1.11746 l -0.176707,-0.14868 c -0.231564,-0.19485 -0.423568,-0.18902 -0.631778,0.0192 l -0.167882,0.16788 v 1.04107 c 0,1.29843 0.04349,1.4218 0.505152,1.43286 0.128571,0.003 0.234477,-0.0407 0.330242,-0.13644 z m 1.676935,-1.6969 h 0.301904 l -0.0017,-0.33024 c -0.002,-0.34562 -0.05841,-0.4681 -0.267208,-0.57931 -0.202258,-0.10772 -0.360264,-0.0781 -0.539451,0.10107 -0.151153,0.15115 -0.167883,0.20512 -0.167883,0.54161 v 0.37372 l 0.186279,-0.0534 c 0.102454,-0.0294 0.322138,-0.0534 0.488184,-0.0534 z m 2.137943,-0.33024 c -0.002,-0.34562 -0.05841,-0.4681 -0.267208,-0.57931 -0.202258,-0.10772 -0.360263,-0.0781 -0.539451,0.10107 -0.145416,0.14542 -0.16788,0.21074 -0.16788,0.48818 v 0.32031 h 0.488181 0.488183 z m -1.376574,5.35324 v -0.43316 l 0.445108,0.0168 0.445108,0.0168 0.01687,0.41639 0.01687,0.41639 H 27.80025 27.338267 Z"
       style="display:inline;fill:#000000;stroke-width:0.0574332"
       id="path359"
       transform="translate(-21.33739,-171.44019)" /></g></svg>
