<?xml version="1.0" encoding="UTF-8" standalone="no"?>
<!-- Created with Inkscape (http://www.inkscape.org/) -->

<svg
   width="26.458334mm"
   height="26.458334mm"
   viewBox="0 0 26.458334 26.458334"
   version="1.1"
   id="svg5"
   xml:space="preserve"
   inkscape:version="1.2.2 (b0a8486541, 2022-12-01)"
   sodipodi:docname="calculator.svg"
   xmlns:inkscape="http://www.inkscape.org/namespaces/inkscape"
   xmlns:sodipodi="http://sodipodi.sourceforge.net/DTD/sodipodi-0.dtd"
   xmlns="http://www.w3.org/2000/svg"
   xmlns:svg="http://www.w3.org/2000/svg"><sodipodi:namedview
     id="namedview7"
     pagecolor="#505050"
     bordercolor="#ffffff"
     borderopacity="1"
     inkscape:showpageshadow="0"
     inkscape:pageopacity="0"
     inkscape:pagecheckerboard="1"
     inkscape:deskcolor="#505050"
     inkscape:document-units="mm"
     showgrid="false"
     inkscape:zoom="3.0859147"
     inkscape:cx="81.499336"
     inkscape:cy="74.532196"
     inkscape:window-width="1499"
     inkscape:window-height="749"
     inkscape:window-x="2486"
     inkscape:window-y="943"
     inkscape:window-maximized="0"
     inkscape:current-layer="layer1" /><defs
     id="defs2" /><g
     inkscape:label="Layer 1"
     inkscape:groupmode="layer"
     id="layer1"
     transform="translate(28.955429,-83.396484)"><path
       style="fill:#000000;stroke-width:0.0453557"
       d="m -23.72693,108.16295 c -0.160796,-0.0493 -0.294892,-0.14069 -0.483543,-0.32934 -0.44659,-0.44659 -0.405174,0.69897 -0.405174,-11.207108 0,-11.904876 -0.04131,-10.760612 0.404573,-11.206494 0.442248,-0.442249 -0.347897,-0.404575 8.485152,-0.404575 8.833047,0 8.0429033,-0.03767 8.4851493,0.404575 0.4316278,0.431626 0.4045741,0.09574 0.4045741,5.022951 v 4.277171 l -0.1314269,0.147091 c -0.108759,0.121724 -0.1643146,0.147092 -0.3221307,0.147092 -0.1578179,0 -0.2133709,-0.02537 -0.3221325,-0.147092 L -7.7433138,94.72013 v -4.266213 -4.266213 l -0.1325784,-0.132577 -0.1325766,-0.132578 h -7.7174532 -7.717453 l -0.132579,0.132578 -0.132578,0.132577 V 96.626502 107.0653 l 0.132578,0.13258 0.132579,0.13258 h 7.717453 7.7174532 l 0.1325766,-0.13258 0.1325784,-0.13258 v -4.26621 -4.266216 l 0.1314251,-0.147091 c 0.1087616,-0.121724 0.1643146,-0.147091 0.3221325,-0.147091 0.1578161,0 0.2133717,0.02536 0.3221307,0.147091 l 0.1314269,0.147091 v 4.277176 c 0,4.92721 0.02705,4.59132 -0.4045741,5.02295 -0.442483,0.44248 0.351275,0.40503 -8.5047213,0.40142 -6.775688,-0.003 -7.787134,-0.0118 -7.981436,-0.0714 z m 1.587466,-2.08046 c -0.262051,-0.13776 -0.250748,-0.01 -0.252309,-2.86188 l -0.0014,-2.63579 0.118473,-0.11847 c 0.06516,-0.0651 0.182518,-0.13006 0.260796,-0.14422 0.07828,-0.0141 1.373713,-0.0198 2.878746,-0.0125 l 2.736423,0.0133 0.132326,0.14812 0.132328,0.14812 v 2.60653 2.60653 l -0.132328,0.14811 -0.132329,0.14812 -2.804455,0.0116 c -2.442722,0.0101 -2.821452,0.003 -2.936228,-0.0577 z m 5.098225,-2.85673 v -2.01833 h -2.222431 -2.222431 v 2.01833 2.01834 h 2.222431 2.222431 z m -3.180371,0.98348 c -0.118062,-0.10549 -0.142968,-0.16143 -0.142968,-0.32113 0,-0.17196 0.02588,-0.21961 0.23332,-0.42967 l 0.23332,-0.23625 -0.187058,-0.17964 c -0.336624,-0.32326 -0.376201,-0.60145 -0.116639,-0.81986 0.211359,-0.17784 0.433027,-0.13266 0.715854,0.14592 l 0.218947,0.21565 0.254191,-0.2404 c 0.241611,-0.22851 0.263572,-0.23914 0.44373,-0.21498 0.24994,0.0335 0.39378,0.19612 0.39378,0.44513 0,0.15641 -0.03168,0.21547 -0.22328,0.41633 l -0.223279,0.23406 0.223279,0.23609 c 0.190988,0.20194 0.22328,0.26235 0.22328,0.41769 0,0.2742 -0.157877,0.43613 -0.42522,0.43613 -0.186401,0 -0.228327,-0.0217 -0.434711,-0.22499 l -0.228412,-0.22497 -0.192859,0.18566 c -0.340063,0.32738 -0.532314,0.36738 -0.765275,0.15923 z m 5.193627,1.89752 c -0.05269,-0.0212 -0.139426,-0.0942 -0.192762,-0.16199 -0.0965,-0.12268 -0.09698,-0.13595 -0.09698,-2.72441 v -2.60112 l 0.132328,-0.14813 0.132327,-0.14811 2.736424,-0.0133 c 1.505032,-0.007 2.8049707,-8.6e-4 2.8887537,0.0143 0.08378,0.0152 0.201141,0.0803 0.260796,0.14466 l 0.108462,0.11703 v 2.6256 c 0,2.89443 0.01025,2.78931 -0.281895,2.89116 -0.170011,0.0592 -5.5413667,0.0633 -5.6874577,0.004 z m 5.0622387,-2.881 v -2.01833 h -2.2224307 -2.222432 v 2.01833 2.01834 h 2.222432 2.2224307 z m -3.2507857,1.07967 c -0.05421,-0.0105 -0.151158,-0.0718 -0.21544,-0.13607 -0.169077,-0.16908 -0.162355,-0.42885 0.0157,-0.60691 l 0.132577,-0.13258 h 1.108521 1.108519 l 0.115083,0.11508 c 0.153641,0.15365 0.184979,0.30415 0.103788,0.49847 -0.111269,0.26631 -0.241529,0.29451 -1.327599,0.28739 -0.518424,-0.004 -0.986942,-0.0148 -1.041151,-0.0254 z m -0.115737,-1.44393 c -0.244185,-0.13497 -0.296089,-0.46797 -0.107189,-0.68773 l 0.10939,-0.12725 1.111999,-0.0136 1.112,-0.0136 0.145466,0.12997 c 0.195745,0.1749 0.206747,0.4564 0.02494,0.63833 l -0.120519,0.12061 -1.076253,0.0108 c -0.888326,0.009 -1.097834,-8.8e-4 -1.199841,-0.0576 z m -8.807197,-3.446309 c -0.262051,-0.137763 -0.250748,-0.0096 -0.252309,-2.861876 l -0.0014,-2.635787 0.118473,-0.118473 c 0.06516,-0.06516 0.182518,-0.13006 0.260796,-0.144221 0.07828,-0.01416 1.373713,-0.01976 2.878745,-0.01245 l 2.736423,0.01331 0.132327,0.148122 0.132328,0.148121 v 2.606526 2.606523 l -0.132328,0.148121 -0.13233,0.148122 -2.804455,0.01162 c -2.442722,0.01011 -2.821452,0.0026 -2.936227,-0.05766 z m 5.098225,-2.856721 v -2.018332 h -2.222431 -2.222431 v 2.018332 2.018328 h 2.222431 2.222431 z m -2.455171,1.314869 c -0.15591,-0.08471 -0.187037,-0.162418 -0.217848,-0.543823 l -0.02565,-0.31749 -0.340167,-0.02268 c -0.395889,-0.02639 -0.440429,-0.04821 -0.528452,-0.258883 -0.05188,-0.124168 -0.05494,-0.18953 -0.01458,-0.311813 0.07639,-0.231447 0.194322,-0.291064 0.575802,-0.291064 h 0.330076 v -0.297063 c 0,-0.339686 0.07548,-0.522527 0.248189,-0.601219 0.189092,-0.08615 0.32904,-0.06398 0.487006,0.07716 0.137181,0.122571 0.148165,0.154387 0.164418,0.476236 l 0.01741,0.344888 h 0.331178 c 0.314132,0 0.337223,0.0072 0.4486,0.139547 0.07513,0.08929 0.117422,0.19421 0.117422,0.291334 0,0.09712 -0.04229,0.202041 -0.117422,0.291332 -0.111377,0.132362 -0.134468,0.139547 -0.4486,0.139547 h -0.331178 l -0.01741,0.344888 c -0.01625,0.321849 -0.02723,0.353665 -0.164418,0.476236 -0.162593,0.145276 -0.325957,0.165242 -0.514377,0.06287 z m 4.468427,1.566123 c -0.05269,-0.02128 -0.139426,-0.09418 -0.192762,-0.161987 -0.0965,-0.122684 -0.09698,-0.135954 -0.09698,-2.724407 v -2.601124 l 0.132328,-0.148121 0.132327,-0.148122 2.736424,-0.01331 c 1.505032,-0.0073 2.8049707,-8.57e-4 2.8887537,0.01432 0.08378,0.01518 0.201141,0.08029 0.260796,0.144661 l 0.108462,0.117032 v 2.625606 c 0,2.894431 0.01025,2.789312 -0.281895,2.891154 -0.170011,0.05927 -5.5413667,0.06332 -5.6874577,0.0043 z m 5.0622387,-2.880992 v -2.018332 h -2.2224307 -2.222432 v 2.018332 2.018328 h 2.222432 2.2224307 z m -3.4656827,0.291331 c -0.07513,-0.08929 -0.11742,-0.19421 -0.11742,-0.291331 0,-0.09712 0.04229,-0.202043 0.11742,-0.291334 l 0.117422,-0.139547 h 1.110166 c 0.708508,0 1.143294,0.01773 1.201735,0.04901 0.148653,0.07955 0.234261,0.337169 0.173365,0.521689 -0.09399,0.284783 -0.12346,0.291065 -1.365497,0.291065 h -1.119769 z m 5.9778513,0.187524 c -0.1361304,-0.05745 -0.2897381,-0.267659 -0.2897381,-0.396514 0,-0.245619 0.2154501,-0.467865 0.4535576,-0.467865 0.2404,0 0.4535576,0.222419 0.4535576,0.473266 0,0.254083 -0.376648,0.492691 -0.6173771,0.391113 z m -14.8070613,-5.169687 -0.132578,-0.132577 v -2.172014 c 0,-2.142487 0.0013,-2.173399 0.09507,-2.274053 0.05228,-0.05613 0.145461,-0.121201 0.207054,-0.144619 0.165252,-0.06283 12.5698577,-0.05682 12.7505697,0.0061 0.288376,0.100529 0.281895,0.04478 0.281895,2.425031 v 2.159483 l -0.132577,0.132577 -0.132579,0.132579 h -6.4021357 -6.402137 z m 12.2948927,-2.316632 v -1.542094 h -5.7601777 -5.760179 v 1.542094 1.542096 h 5.760179 5.7601777 z"
       id="path302" /></g></svg>
