<?xml version="1.0" encoding="UTF-8" standalone="no"?>
<!-- Created with Inkscape (http://www.inkscape.org/) -->

<svg
   width="26.458334mm"
   height="26.458334mm"
   viewBox="0 0 26.458334 26.458334"
   version="1.1"
   id="svg5"
   xml:space="preserve"
   inkscape:version="1.2.2 (b0a8486541, 2022-12-01)"
   sodipodi:docname="chart.svg"
   xmlns:inkscape="http://www.inkscape.org/namespaces/inkscape"
   xmlns:sodipodi="http://sodipodi.sourceforge.net/DTD/sodipodi-0.dtd"
   xmlns="http://www.w3.org/2000/svg"
   xmlns:svg="http://www.w3.org/2000/svg"><sodipodi:namedview
     id="namedview7"
     pagecolor="#505050"
     bordercolor="#ffffff"
     borderopacity="1"
     inkscape:showpageshadow="0"
     inkscape:pageopacity="0"
     inkscape:pagecheckerboard="1"
     inkscape:deskcolor="#505050"
     inkscape:document-units="mm"
     showgrid="false"
     inkscape:zoom="6.1718294"
     inkscape:cx="75.018276"
     inkscape:cy="30.785038"
     inkscape:window-width="1920"
     inkscape:window-height="1011"
     inkscape:window-x="1920"
     inkscape:window-y="706"
     inkscape:window-maximized="1"
     inkscape:current-layer="layer1" /><defs
     id="defs2" /><g
     inkscape:label="Layer 1"
     inkscape:groupmode="layer"
     id="layer1"
     transform="translate(-38.460021,-63.188934)"><path
       style="fill:#000000;stroke-width:0.0516764"
       d="m 42.852514,88.768769 v -0.8785 h 0.43925 0.439249 v 0.8785 0.878499 h -0.439249 -0.43925 z m 1.808675,0 v -0.8785 h 0.413412 0.413411 v 0.8785 0.878499 h -0.413411 -0.413412 z m 4.392497,0 v -0.8785 h 0.43925 0.439249 v 0.8785 0.878499 h -0.439249 -0.43925 z m 1.756999,0 v -0.8785 h 0.439249 0.43925 v 0.8785 0.878499 h -0.43925 -0.439249 z m 4.392496,0 v -0.8785 h 0.43925 0.43925 v 0.8785 0.878499 h -0.43925 -0.43925 z m 1.756999,0 v -0.8785 h 0.43925 0.43925 v 0.8785 0.878499 h -0.43925 -0.43925 z m 4.444174,0 v -0.8785 h 0.439249 0.43925 v 0.8785 0.878499 h -0.43925 -0.439249 z m 1.756998,0 v -0.8785 h 0.43925 0.43925 v 0.8785 0.878499 h -0.43925 -0.43925 z m -24.424504,-1.80824 c -0.06091,-0.02458 -0.148113,-0.09804 -0.193787,-0.163252 -0.07568,-0.108053 -0.08304,-1.159627 -0.08304,-11.863453 v -11.74489 h 0.43925 0.439249 v 0.878499 0.8785 h 0.8785 0.878499 v 0.439249 0.43925 h -0.878499 -0.8785 v 0.878499 0.8785 h 0.43925 0.43925 v 0.43925 0.439249 h -0.43925 -0.43925 v 0.904338 0.904337 h 0.8785 0.878499 v 0.43925 0.43925 h -0.878499 -0.8785 v 0.878499 0.8785 h 0.43925 0.43925 v 0.439249 0.43925 h -0.43925 -0.43925 v 0.878499 0.8785 h 0.8785 0.878499 v 0.439249 0.43925 h -0.878499 -0.8785 v 0.878499 0.8785 h 0.43925 0.43925 v 0.439249 0.43925 h -0.43925 -0.43925 v 0.878499 0.8785 h 0.8785 0.878499 v 0.43925 0.439249 h -0.878499 -0.8785 v 0.904338 0.904337 h 0.43925 0.43925 v 0.43925 0.43925 h -0.43925 -0.43925 v 0.878499 0.8785 h 12.789918 12.789917 v 0.439249 0.43925 l -13.03538,-0.0033 C 44.679915,87.00667 38.798046,86.9852 38.736852,86.9605 Z m 5.14566,-1.759324 c -0.568898,-0.09286 -1.128707,-0.558173 -1.337541,-1.111767 -0.158858,-0.421112 -0.132125,-0.973922 0.06675,-1.380414 0.39879,-0.815098 1.392305,-1.193256 2.240414,-0.85276 l 0.299981,0.120436 1.782837,-1.337005 c 0.98056,-0.735352 1.779056,-1.363982 1.774435,-1.396954 -0.0046,-0.03297 -0.03276,-0.180285 -0.06252,-0.32736 -0.127169,-0.628372 0.16745,-1.361894 0.691943,-1.722755 0.328602,-0.226084 0.608324,-0.310699 1.04185,-0.315156 0.317145,-0.0033 0.43105,0.02091 0.701465,0.148869 0.567989,0.268761 0.937141,0.760534 1.009733,1.345135 l 0.03658,0.294552 1.431998,0.410669 1.431997,0.410668 0.260098,-0.271276 c 0.462248,-0.482115 1.184438,-0.689961 1.767499,-0.508683 l 0.240714,0.07484 1.903858,-2.37925 c 1.047122,-1.308587 1.93512,-2.423128 1.973329,-2.476758 0.05969,-0.08378 0.05261,-0.138967 -0.05021,-0.391872 -0.251668,-0.619013 -0.101859,-1.38779 0.363543,-1.865601 0.29474,-0.302598 0.547842,-0.439456 0.964214,-0.521372 0.790356,-0.155493 1.570394,0.260465 1.925992,1.027042 0.109747,0.236587 0.13472,0.367055 0.13472,0.703833 0,0.336779 -0.02497,0.467246 -0.13472,0.703834 -0.270369,0.582844 -0.722515,0.92495 -1.365694,1.033319 -0.305035,0.05139 -0.402178,0.04738 -0.667085,-0.02755 -0.170532,-0.04824 -0.347947,-0.09219 -0.394255,-0.09767 -0.05464,-0.0065 -0.76589,0.841724 -2.026132,2.416236 l -1.941936,2.4262 0.09661,0.157622 c 0.523231,0.853623 0.171137,2.022578 -0.741118,2.460525 -0.16735,0.08034 -0.42546,0.161213 -0.573577,0.179719 -0.534632,0.0668 -1.213752,-0.213118 -1.555169,-0.641002 -0.190949,-0.239309 -0.380597,-0.709904 -0.382121,-0.9482 -0.0012,-0.183846 -0.01139,-0.194791 -0.24669,-0.264395 -0.135005,-0.03993 -0.782865,-0.22798 -1.439689,-0.417879 l -1.19422,-0.345269 -0.330228,0.327723 c -0.251753,0.249843 -0.396111,0.348672 -0.607464,0.415877 -0.521966,0.165972 -1.185786,0.0943 -1.553828,-0.167771 l -0.144749,-0.103071 -1.725107,1.293455 c -0.948808,0.7114 -1.741074,1.309584 -1.760589,1.329298 -0.01952,0.01971 0.01204,0.175371 0.07013,0.345903 0.282424,0.829126 -0.193045,1.835572 -1.0089,2.135581 -0.333282,0.122555 -0.662596,0.160165 -0.96715,0.110454 z m 0.737253,-0.96145 c 0.401129,-0.201602 0.570195,-0.785303 0.340731,-1.176374 -0.349149,-0.595047 -1.090005,-0.625687 -1.510506,-0.06247 -0.150902,0.202116 -0.150902,0.739932 0,0.942049 0.294865,0.394939 0.746499,0.509528 1.169775,0.296795 z M 56.886727,81.17769 c 0.578053,-0.262539 0.689649,-0.967226 0.223469,-1.411132 -0.55008,-0.523797 -1.441927,-0.133434 -1.441927,0.631136 0,0.246534 0.08773,0.435346 0.292526,0.629566 0.275875,0.261629 0.574336,0.310118 0.925932,0.15043 z m -6.308586,-1.715782 c 0.385589,-0.104841 0.645955,-0.446467 0.645955,-0.847559 0,-0.785496 -0.923559,-1.165892 -1.479907,-0.609543 -0.479829,0.479829 -0.263914,1.263127 0.400884,1.45432 0.09608,0.02763 0.186313,0.05221 0.200524,0.05461 0.01421,0.0024 0.118856,-0.02092 0.232544,-0.05183 z m 12.627757,-5.84932 c 0.693932,-0.459223 0.358882,-1.586984 -0.471482,-1.586984 -0.592657,0 -1.016087,0.524015 -0.867956,1.074135 0.161747,0.60068 0.823716,0.854138 1.339438,0.512849 z m -19.271182,4.974254 c -0.813631,-0.133342 -1.418769,-0.776754 -1.482988,-1.576785 -0.04608,-0.573998 0.161947,-1.090219 0.591797,-1.468588 0.395913,-0.348497 0.876932,-0.476382 1.488473,-0.395729 l 0.258382,0.03408 2.138043,-3.397891 c 2.117325,-3.364964 2.137237,-3.39915 2.054832,-3.527891 -0.528818,-0.826169 -0.479737,-1.687502 0.132464,-2.324621 0.314008,-0.326789 0.663428,-0.480335 1.152363,-0.506385 0.33907,-0.01807 0.468698,-0.0012 0.720856,0.0939 0.372722,0.140545 0.760358,0.487192 0.949478,0.849078 0.118149,0.22608 0.135743,0.322476 0.136953,0.750332 7.65e-4,0.270009 -0.01769,0.551369 -0.04102,0.625245 -0.04051,0.128329 0.03543,0.195556 1.702923,1.507564 l 1.745326,1.373246 0.131591,-0.09327 c 0.534663,-0.378951 1.430313,-0.329856 2.02189,0.110832 l 0.176758,0.131673 1.576132,-0.924729 1.576131,-0.924729 0.0068,-0.399072 c 0.0091,-0.536739 0.155795,-0.914605 0.487182,-1.254828 0.843592,-0.866084 2.255612,-0.652291 2.824461,0.42765 0.129542,0.245931 0.14384,0.324445 0.14384,0.78984 0,0.459535 -0.01516,0.54538 -0.136923,0.775147 -0.244014,0.460471 -0.708947,0.828672 -1.173176,0.92909 -0.252054,0.05452 -0.715261,0.03988 -0.931297,-0.02943 -0.103024,-0.03306 -0.321947,-0.150976 -0.486494,-0.262045 -0.164548,-0.111069 -0.315701,-0.193506 -0.335897,-0.183194 -0.0202,0.01031 -0.722724,0.419327 -1.561174,0.908922 l -1.524455,0.890173 -0.0011,0.449374 c -9.51e-4,0.381198 -0.02292,0.496415 -0.144811,0.759433 -0.522235,1.126877 -1.944853,1.388937 -2.830884,0.521478 -0.43296,-0.423887 -0.626495,-1.168059 -0.44347,-1.705211 l 0.07926,-0.232621 -1.660197,-1.307204 C 52.363657,69.280714 51.5792,68.66518 51.533528,68.631822 c -0.06673,-0.04873 -0.145918,-0.02948 -0.403114,0.09799 -0.255428,0.126602 -0.390484,0.159726 -0.668691,0.164003 -0.191739,0.0029 -0.416172,-0.0063 -0.498739,-0.02048 -0.148321,-0.02553 -0.176002,0.0151 -2.306021,3.384806 -1.9919,3.151198 -2.150363,3.418507 -2.083133,3.513998 0.04002,0.05684 0.132442,0.226801 0.205381,0.377683 0.399161,0.825708 0.0397,1.851235 -0.798831,2.279021 -0.171874,0.08768 -0.296564,0.119637 -0.706711,0.181105 -0.05684,0.0085 -0.209349,-0.0019 -0.3389,-0.02311 z m 0.685045,-0.961671 c 0.401129,-0.201602 0.570195,-0.785302 0.340731,-1.176373 -0.349149,-0.595047 -1.090005,-0.625688 -1.510506,-0.06247 -0.150902,0.202117 -0.150902,0.739933 0,0.942049 0.294865,0.39494 0.746499,0.509529 1.169775,0.296796 z M 56.888665,72.80524 c 0.82072,-0.372704 0.633617,-1.572894 -0.256715,-1.646728 -0.340814,-0.02826 -0.595738,0.07463 -0.77847,0.314203 -0.263824,0.34589 -0.241313,0.795029 0.05636,1.124518 0.276196,0.305717 0.608266,0.376284 0.978823,0.208007 z m 6.320364,-3.610242 c 0.62574,-0.463303 0.408042,-1.441996 -0.351814,-1.581633 -0.732902,-0.134684 -1.269932,0.689215 -0.876732,1.345063 0.241389,0.402631 0.84681,0.519212 1.228546,0.23657 z M 50.738282,67.948053 c 0.305279,-0.138641 0.452209,-0.370934 0.475656,-0.751997 0.01612,-0.261941 -2.59e-4,-0.340636 -0.101587,-0.488373 -0.180297,-0.26286 -0.367183,-0.378022 -0.658954,-0.406058 -0.32022,-0.03077 -0.523271,0.04693 -0.725981,0.277805 -0.403028,0.459024 -0.268553,1.12076 0.278222,1.369093 0.266845,0.121195 0.465024,0.121068 0.732644,-4.7e-4 z"
       id="path339" /></g></svg>
