<?xml version="1.0" encoding="UTF-8" standalone="no"?>
<!-- Created with Inkscape (http://www.inkscape.org/) -->

<svg
   width="26.458349mm"
   height="26.446039mm"
   viewBox="0 0 26.458349 26.446039"
   version="1.1"
   id="svg5"
   xml:space="preserve"
   inkscape:version="1.2.2 (b0a8486541, 2022-12-01)"
   sodipodi:docname="chat.svg"
   xmlns:inkscape="http://www.inkscape.org/namespaces/inkscape"
   xmlns:sodipodi="http://sodipodi.sourceforge.net/DTD/sodipodi-0.dtd"
   xmlns="http://www.w3.org/2000/svg"
   xmlns:svg="http://www.w3.org/2000/svg"><sodipodi:namedview
     id="namedview7"
     pagecolor="#505050"
     bordercolor="#ffffff"
     borderopacity="1"
     inkscape:showpageshadow="0"
     inkscape:pageopacity="0"
     inkscape:pagecheckerboard="1"
     inkscape:deskcolor="#505050"
     inkscape:document-units="mm"
     showgrid="false"
     inkscape:zoom="4.3641424"
     inkscape:cx="7.6761931"
     inkscape:cy="49.95254"
     inkscape:window-width="1920"
     inkscape:window-height="1011"
     inkscape:window-x="1920"
     inkscape:window-y="706"
     inkscape:window-maximized="1"
     inkscape:current-layer="layer1" /><defs
     id="defs2" /><g
     inkscape:label="Layer 1"
     inkscape:groupmode="layer"
     id="layer1"
     transform="translate(-47.509874,-95.36266)"><path
       style="fill:#000000;stroke-width:0.0516804"
       d="m 72.806436,121.72628 c -0.113697,-0.0552 -1.078831,-0.80014 -2.144741,-1.65543 l -1.938018,-1.55506 -5.777482,-5e-5 c -5.068178,-5e-5 -5.826095,-0.0101 -6.173461,-0.0819 -1.298277,-0.26817 -2.30384,-1.27261 -2.56752,-2.56466 -0.112275,-0.55015 -0.110284,-1.59217 0.0035,-1.83195 0.268235,-0.56526 1.019103,-0.63527 1.403939,-0.1309 0.13262,0.17381 0.140516,0.21807 0.166933,0.93589 0.02455,0.66719 0.04301,0.78651 0.161233,1.04217 0.169209,0.36592 0.446255,0.64361 0.814339,0.81623 l 0.288714,0.13537 6.098305,0.0259 c 3.644647,0.0154 6.139231,0.0454 6.200023,0.0745 0.05594,0.0267 0.736137,0.55582 1.511545,1.17573 0.775405,0.61992 1.421825,1.12712 1.436492,1.12712 0.01467,0 0.02054,-3.22681 0.01304,-7.17068 l -0.01361,-7.17067 -0.135394,-0.28872 c -0.263877,-0.56269 -0.741,-0.88616 -1.43576,-0.9734 -0.267682,-0.0336 -0.418692,-0.083 -0.542508,-0.17744 -0.642334,-0.48993 -0.284741,-1.4804 0.534473,-1.4804 0.36507,0 0.99421,0.15463 1.372466,0.33731 0.943474,0.45567 1.593092,1.28779 1.804549,2.31151 0.07259,0.35142 0.08166,1.30205 0.08066,8.4474 -0.0011,7.74011 -0.0049,8.05962 -0.09734,8.26326 -0.189054,0.41629 -0.656284,0.58702 -1.064338,0.38893 z m -24.729141,-5.72859 c -0.190949,-0.0718 -0.381452,-0.25356 -0.470012,-0.44856 -0.09255,-0.20379 -0.09625,-0.53341 -0.09734,-8.67671 -10e-4,-7.522441 0.008,-8.508951 0.08066,-8.860843 0.211455,-1.023716 0.861075,-1.855838 1.804548,-2.311506 0.730494,-0.352807 0.323285,-0.33731 8.863215,-0.33731 8.539928,0 8.13272,-0.0155 8.863214,0.33731 0.943472,0.455668 1.593094,1.28779 1.804547,2.311506 0.07145,0.345916 0.08179,1.056447 0.08179,5.620073 0,5.79414 0.0066,5.67062 -0.337308,6.38255 -0.455667,0.94347 -1.287789,1.59309 -2.311507,1.80454 -0.348283,0.072 -1.140746,0.0818 -6.579064,0.0818 h -6.183084 l -2.359305,1.96956 c -1.297618,1.08327 -2.45233,2.01301 -2.566027,2.06609 -0.202754,0.0947 -0.44057,0.11928 -0.594327,0.0615 z m 2.907716,-4.07536 c 0.973156,-0.81233 1.839143,-1.51583 1.924416,-1.56334 0.141886,-0.0791 0.707558,-0.0886 6.666791,-0.11223 l 6.511749,-0.0258 0.288711,-0.13539 c 0.366984,-0.1721 0.644129,-0.44925 0.816228,-0.81623 L 67.3283,108.98058 V 103.63164 98.2827 L 67.192906,97.993991 C 67.020807,97.627007 66.743662,97.349861 66.376678,97.17776 L 66.087967,97.042379 H 58.258364 50.42876 l -0.288712,0.135392 c -0.366984,0.172102 -0.644128,0.449247 -0.816228,0.816232 l -0.135393,0.288709 -0.01359,7.558278 c -0.0075,4.15706 -0.0014,7.55828 0.0136,7.55828 0.01496,0 0.82342,-0.66462 1.796576,-1.47694 z m 1.959539,-6.72382 c -0.09438,-0.0465 -0.233917,-0.16626 -0.310083,-0.26612 -0.198084,-0.2597 -0.197759,-0.68843 7.2e-4,-0.94865 0.280474,-0.36772 0.104309,-0.35209 3.969399,-0.35209 3.865092,0 3.688927,-0.0156 3.969401,0.35209 0.198823,0.26067 0.198823,0.68892 0,0.94959 -0.280602,0.36789 -0.103098,0.35223 -3.977211,0.35092 -3.116779,-0.001 -3.498565,-0.01 -3.652226,-0.0857 z m 0,-3.30755 c -0.09438,-0.0465 -0.233917,-0.16627 -0.310083,-0.26612 -0.198084,-0.25971 -0.197759,-0.68843 7.2e-4,-0.94865 0.286178,-0.3752 -0.08282,-0.3521 5.623177,-0.3521 5.705999,0 5.337,-0.0231 5.623178,0.3521 0.198822,0.26067 0.198822,0.68891 0,0.94959 -0.286259,0.3753 0.08406,0.35223 -5.630988,0.35092 -4.648018,-10e-4 -5.150661,-0.009 -5.306004,-0.0857 z"
       id="path302" /></g></svg>
