<?xml version="1.0" encoding="UTF-8" standalone="no"?>
<!-- Created with Inkscape (http://www.inkscape.org/) -->

<svg
   version="1.1"
   id="svg2"
   width="99.902435"
   height="99.902435"
   viewBox="0 0 99.902435 99.902435"
   sodipodi:docname="copy.png"
   inkscape:version="1.2.2 (b0a8486541, 2022-12-01)"
   xmlns:inkscape="http://www.inkscape.org/namespaces/inkscape"
   xmlns:sodipodi="http://sodipodi.sourceforge.net/DTD/sodipodi-0.dtd"
   xmlns="http://www.w3.org/2000/svg"
   xmlns:svg="http://www.w3.org/2000/svg">
  <defs
     id="defs6" />
  <sodipodi:namedview
     id="namedview4"
     pagecolor="#505050"
     bordercolor="#ffffff"
     borderopacity="1"
     inkscape:showpageshadow="0"
     inkscape:pageopacity="0"
     inkscape:pagecheckerboard="1"
     inkscape:deskcolor="#505050"
     showgrid="false"
     inkscape:zoom="8.6684574"
     inkscape:cx="62.525543"
     inkscape:cy="49.835857"
     inkscape:window-width="1920"
     inkscape:window-height="1011"
     inkscape:window-x="1920"
     inkscape:window-y="706"
     inkscape:window-maximized="1"
     inkscape:current-layer="g8" />
  <g
     inkscape:groupmode="layer"
     inkscape:label="Image"
     id="g8">
    <path
       style="fill:#000000;stroke-width:0.195122"
       d="m 20.295116,84.981853 c -2.312748,-0.62763 -3.977461,-2.010785 -4.988296,-4.144609 l -0.62159,-1.31215 V 57.768997 36.012901 l 0.604373,-1.268293 c 1.029054,-2.159495 2.750566,-3.587149 5.046378,-4.184976 0.88269,-0.229851 2.211057,-0.302829 5.512195,-0.302829 h 4.349248 l 0.0034,-4.146341 c 0.0037,-4.575321 0.235354,-6.252293 1.057233,-7.654722 0.709807,-1.211195 2.471905,-2.734421 3.7693,-3.258331 l 1.121291,-0.4528 20.878048,-0.05872 c 15.08222,-0.04242 21.201243,0.0032 22.042277,0.164478 2.955424,0.566591 5.094606,2.584118 5.887605,5.552777 0.209657,0.784872 0.260607,5.038314 0.260607,21.756097 0,22.107086 0.01698,21.679097 -0.93327,23.537622 -0.92906,1.817095 -3.093938,3.364478 -5.283852,3.77672 -0.578062,0.10882 -2.926842,0.197852 -5.219512,0.197852 h -4.168489 l -0.0016,3.951219 c -0.0018,4.49184 -0.188028,6.004837 -0.924964,7.509857 -0.67879,1.386274 -2.43271,3.0049 -3.896084,3.59555 l -1.12861,0.455568 -21.170731,0.03809 c -17.79765,0.03202 -21.333923,-0.0062 -22.194991,-0.239869 z m 43.417368,-5.441737 0.728841,-0.667902 0.05137,-20.860376 0.05137,-20.860376 -0.447469,-0.663998 C 63.850488,36.122264 63.43225,35.713724 63.167177,35.579595 62.790799,35.389144 58.16131,35.335096 42.032409,35.33285 23.26071,35.33025 21.330383,35.35904 20.839345,35.649103 19.58409,36.3906 19.660841,34.950038 19.660841,57.768997 c 0,18.764614 0.02989,20.77087 0.316644,21.256312 0.739095,1.251188 -0.755772,1.171804 22.174027,1.17752 l 20.832131,0.0052 z m 15.257654,-15.26098 c 1.255255,-0.741497 1.178504,0.699065 1.178504,-22.119894 0,-22.81896 0.07675,-21.378397 -1.178504,-22.119894 -0.491018,-0.290051 -2.435687,-0.31913 -21.342272,-0.31913 H 36.82584 l -0.728843,0.66759 -0.728841,0.667591 -0.05876,4.593457 -0.05876,4.593457 14.205096,0.05603 14.205097,0.05602 1.128698,0.455569 c 2.303707,0.929828 4.139498,3.230216 4.608964,5.775389 0.141377,0.766466 0.213557,5.696183 0.213557,14.585365 v 13.427578 h 4.408919 c 3.731137,0 4.491968,-0.04906 4.949162,-0.319129 z"
       id="path293" />
  </g>
</svg>
