<?xml version="1.0" encoding="UTF-8" standalone="no"?>
<!-- Created with Inkscape (http://www.inkscape.org/) -->

<svg
   width="26.458334mm"
   height="26.458334mm"
   viewBox="0 0 26.458334 26.458334"
   version="1.1"
   id="svg5"
   xml:space="preserve"
   inkscape:version="1.2.2 (b0a8486541, 2022-12-01)"
   sodipodi:docname="null.svg"
   xmlns:inkscape="http://www.inkscape.org/namespaces/inkscape"
   xmlns:sodipodi="http://sodipodi.sourceforge.net/DTD/sodipodi-0.dtd"
   xmlns="http://www.w3.org/2000/svg"
   xmlns:svg="http://www.w3.org/2000/svg"><sodipodi:namedview
     id="namedview7"
     pagecolor="#505050"
     bordercolor="#ffffff"
     borderopacity="1"
     inkscape:showpageshadow="0"
     inkscape:pageopacity="0"
     inkscape:pagecheckerboard="1"
     inkscape:deskcolor="#505050"
     inkscape:document-units="mm"
     showgrid="false"
     inkscape:zoom="0.77147868"
     inkscape:cx="346.08863"
     inkscape:cy="373.30909"
     inkscape:window-width="1920"
     inkscape:window-height="1011"
     inkscape:window-x="1920"
     inkscape:window-y="706"
     inkscape:window-maximized="1"
     inkscape:current-layer="layer1" /><defs
     id="defs2" /><g
     inkscape:label="Layer 1"
     inkscape:groupmode="layer"
     id="layer1"
     transform="translate(51.271435,-49.557663)"><path
       style="fill:#000000;stroke-width:0.0516764"
       d="m -39.246219,75.956697 c -2.225171,-0.224763 -4.213,-0.925127 -6.071981,-2.139316 -1.488345,-0.972109 -3.001795,-2.527678 -3.952103,-4.062091 -2.121482,-3.425448 -2.565757,-7.621028 -1.211186,-11.438042 0.270513,-0.762275 0.935598,-2.12474 1.073114,-2.198336 0.155922,-0.08345 0.288355,-0.06801 0.440017,0.05129 0.08357,0.06573 0.13616,0.158059 0.13616,0.239021 0,0.07255 -0.161579,0.460377 -0.359064,0.861829 -0.601771,1.223292 -0.960928,2.366977 -1.170453,3.727146 -0.131973,0.856726 -0.134155,2.697952 -0.0042,3.539836 0.211797,1.37203 0.558724,2.489914 1.146673,3.694865 1.216805,2.493737 3.209043,4.494891 5.683875,5.709313 1.230541,0.603839 2.368033,0.960974 3.720703,1.168182 0.863644,0.132297 2.694949,0.132903 3.565674,0.0012 4.08984,-0.618703 7.559038,-3.14335 9.381201,-6.827 0.587213,-1.1871 0.959991,-2.381291 1.169516,-3.746542 0.127115,-0.828266 0.127115,-2.685731 0,-3.513997 -0.412557,-2.688186 -1.541947,-4.982258 -3.393122,-6.892282 -1.060384,-1.094093 -2.142225,-1.881196 -3.488568,-2.538136 -1.204359,-0.587661 -2.320262,-0.934067 -3.694865,-1.146986 -0.830634,-0.128661 -2.730846,-0.126691 -3.565674,0.0037 -2.111107,0.329723 -4.048902,1.149137 -5.735571,2.425338 -0.591022,0.447191 -1.53989,1.354767 -2.008774,1.921358 -0.414537,0.500919 -0.459445,0.538869 -0.640157,0.540959 -0.197007,0.0023 -0.348815,-0.164828 -0.348815,-0.383968 0,-0.146654 0.06845,-0.260773 0.379702,-0.633036 0.524112,-0.626846 1.561694,-1.620414 2.16338,-2.071608 1.880435,-1.410109 4.050089,-2.293116 6.396941,-2.60343 0.633188,-0.08372 2.57075,-0.08372 3.203938,0 2.492212,0.329535 4.750761,1.279276 6.640422,2.792362 0.944437,0.756227 2.058284,1.95647 2.703152,2.912823 1.168464,1.732857 1.907211,3.698858 2.189913,5.827938 0.09802,0.738221 0.08229,2.629329 -0.02816,3.384806 -0.438002,2.996003 -1.703762,5.521042 -3.813637,7.607742 -2.052266,2.029724 -4.502332,3.25928 -7.352289,3.689715 -0.780074,0.117816 -2.437632,0.16791 -3.155771,0.09537 z m 0.335897,-2.049077 c -2.583718,-0.19405 -5.127804,-1.374048 -7.000923,-3.247166 -2.804519,-2.80452 -3.904175,-6.819048 -2.921796,-10.666644 0.483518,-1.893757 1.502126,-3.669676 2.920562,-5.091934 2.792375,-2.799901 6.822639,-3.903839 10.667878,-2.922062 3.924233,1.001945 7.044462,4.150705 8.03652,8.110003 0.23947,0.955726 0.308714,1.559354 0.308714,2.691215 0,1.382197 -0.153686,2.354654 -0.567595,3.591512 -1.07576,3.214621 -3.814389,5.938177 -7.021145,6.982501 -0.410998,0.133847 -0.460242,0.13975 -0.583956,0.07 -0.18067,-0.101867 -0.248687,-0.314208 -0.159952,-0.499347 0.05629,-0.117437 0.164113,-0.176963 0.610894,-0.337244 3.837272,-1.37661 6.51801,-4.7716 6.922125,-8.766445 0.41703,-4.122522 -1.702687,-8.145225 -5.346051,-10.145491 -4.719576,-2.591123 -10.616336,-1.134558 -13.639336,3.369069 -0.882959,1.31542 -1.513112,3.077311 -1.681675,4.70192 -0.353928,3.411143 1.091493,6.888374 3.772484,9.075416 2.097845,1.711335 4.936744,2.572483 7.569441,2.296104 0.31604,-0.03318 0.445409,-0.02689 0.54926,0.02671 0.23134,0.119398 0.266358,0.35442 0.08378,0.562273 -0.101492,0.115538 -0.17868,0.138783 -0.607198,0.182853 -0.462247,0.04754 -1.393513,0.0557 -1.912028,0.01676 z m 0.387573,-2.772521 c -0.32913,-0.109018 -0.501385,-0.214944 -0.737029,-0.453232 -0.682283,-0.689936 -0.661971,-1.787923 0.04532,-2.449506 0.382149,-0.357456 0.652811,-0.463543 1.18264,-0.463543 0.522315,0 0.793824,0.103721 1.163504,0.444479 1.128013,1.039766 0.449791,2.901437 -1.083163,2.973202 -0.211569,0.0099 -0.451308,-0.01167 -0.571267,-0.0514 z m 0.868047,-0.775772 c 0.295104,-0.123302 0.604155,-0.57663 0.604155,-0.886197 0,-0.166205 -0.130457,-0.467179 -0.272737,-0.629227 -0.388906,-0.442939 -1.028172,-0.442939 -1.417078,0 -0.14228,0.162048 -0.272737,0.463022 -0.272737,0.629227 0,0.302973 0.305739,0.758945 0.592742,0.883999 0.203872,0.08883 0.55589,0.08984 0.765655,0.0022 z m -0.868047,-3.25499 c -0.354324,-0.117362 -0.518751,-0.226116 -0.789101,-0.521922 -0.381712,-0.417655 -0.451995,-0.661675 -0.447429,-1.553458 0.002,-0.397909 0.03353,-0.862997 0.06999,-1.033529 0.19608,-0.917246 0.710545,-1.794127 1.387071,-2.364197 0.26816,-0.225963 0.431643,-0.243944 0.608644,-0.06694 0.216612,0.216612 0.171004,0.344224 -0.304789,0.852806 -0.687609,0.734995 -0.939805,1.350073 -0.996764,2.430996 -0.03676,0.697689 0.016,0.951561 0.254123,1.222773 0.361222,0.411408 0.958352,0.446332 1.346834,0.07877 0.262328,-0.248202 0.308436,-0.399211 0.343497,-1.124969 0.03016,-0.624429 0.04457,-0.697477 0.188519,-0.956014 0.16286,-0.292501 0.408621,-0.485637 1.112404,-0.874206 0.680182,-0.375538 1.450935,-1.29302 1.769838,-2.106761 0.308923,-0.788275 0.383607,-1.838792 0.18671,-2.626285 -0.374947,-1.499614 -1.589264,-2.752955 -3.086276,-3.185458 -0.581927,-0.168125 -1.72258,-0.168179 -2.304287,-1.03e-4 -1.435005,0.41461 -2.527711,1.456644 -2.993124,2.854323 -0.146084,0.438704 -0.163815,0.557288 -0.166693,1.114786 -0.0031,0.610161 5.1e-5,0.628157 0.14581,0.819529 0.569611,0.747866 1.731375,0.316583 1.736025,-0.644466 0.0069,-1.422123 1.423064,-2.587773 2.82944,-2.32889 1.615508,0.297379 2.490378,2.010904 1.777003,3.480446 -0.187269,0.385766 -0.404489,0.607499 -0.595139,0.607499 -0.329727,0 -0.501809,-0.363273 -0.296569,-0.626068 0.26714,-0.342052 0.342246,-0.572968 0.342629,-1.053417 4.14e-4,-0.545494 -0.114499,-0.841143 -0.462009,-1.188443 -0.328806,-0.328606 -0.648157,-0.457935 -1.140523,-0.461881 -0.367961,-0.003 -0.453135,0.01577 -0.760875,0.1672 -0.57729,0.284073 -0.835179,0.682285 -0.919254,1.419443 -0.06897,0.604725 -0.175284,0.87536 -0.470954,1.19887 -0.369204,0.403968 -0.725804,0.564687 -1.259715,0.567754 -0.36681,0.0021 -0.454192,-0.01716 -0.759507,-0.167468 -0.41688,-0.205229 -0.71694,-0.526904 -0.870861,-0.933594 -0.09754,-0.257713 -0.107355,-0.364303 -0.08399,-0.911939 0.0552,-1.293913 0.55246,-2.415542 1.478424,-3.334748 0.917995,-0.911296 2.051738,-1.413932 3.341655,-1.481497 2.479471,-0.129873 4.594703,1.443291 5.28164,3.92812 0.06686,0.241855 0.08841,0.527269 0.08852,1.172345 1.03e-4,0.731555 -0.01689,0.91505 -0.11977,1.291911 -0.40125,1.469813 -1.336445,2.606857 -2.781632,3.382005 -0.361772,0.194043 -0.420669,0.332547 -0.451668,1.062168 -0.01531,0.360429 -0.0594,0.692303 -0.112034,0.843384 -0.119939,0.344265 -0.5656,0.815659 -0.913791,0.966553 -0.330342,0.14316 -0.903414,0.183482 -1.202017,0.08458 z"
       id="path302" /></g></svg>
