<?xml version="1.0" encoding="UTF-8" standalone="no"?>
<!-- Created with Inkscape (http://www.inkscape.org/) -->

<svg
   width="9.1265526mm"
   height="13.229321mm"
   viewBox="0 0 9.1265526 13.229322"
   version="1.1"
   id="svg5"
   xml:space="preserve"
   xmlns="http://www.w3.org/2000/svg"
   xmlns:svg="http://www.w3.org/2000/svg"><defs
     id="defs2" /><g
     id="layer2"
     style="display:inline"
     transform="translate(0.00434933,-1.6589653)"><path
       d="m 25.134326,186.27697 c -1.826286,-0.34925 -3.195903,-1.62698 -3.660966,-3.41536 -0.10533,-0.40505 -0.113665,-0.57962 -0.133966,-2.80559 -0.01503,-1.64808 -0.0037,-2.46042 0.03727,-2.65745 0.07856,-0.3784 0.299463,-0.67199 0.632685,-0.84085 0.229212,-0.11615 0.32052,-0.13338 0.617701,-0.11659 l 0.348728,0.0197 0.02071,-0.80623 c 0.01821,-0.70916 0.03505,-0.83577 0.139772,-1.05167 0.13115,-0.27036 0.354443,-0.48383 0.624461,-0.59696 0.179289,-0.0751 0.651297,-0.0992 0.830457,-0.0423 0.07885,0.025 0.12214,-0.0163 0.212413,-0.20279 0.205707,-0.42493 0.597659,-0.66295 1.08968,-0.66172 0.50136,10e-4 0.85314,0.21131 1.069759,0.63878 0.107079,0.21131 0.150225,0.2532 0.233574,0.22675 0.181951,-0.0578 0.65297,-0.0344 0.83366,0.0413 0.2695,0.11292 0.493061,0.32629 0.625461,0.59696 0.10972,0.22431 0.121727,0.32927 0.139461,1.21907 l 0.01941,0.97363 h -0.395049 -0.395051 v -0.8325 c 0,-0.95742 -0.04661,-1.14443 -0.307919,-1.23552 -0.190221,-0.0663 -0.346969,-0.0202 -0.496946,0.14616 -0.09978,0.11069 -0.104447,0.19954 -0.119002,2.26478 l -0.01515,2.14957 h -0.361322 -0.36132 v -2.48474 c 0,-1.72002 -0.01815,-2.53679 -0.05896,-2.65386 -0.130343,-0.3739 -0.686428,-0.3739 -0.816774,0 -0.04081,0.11707 -0.05895,0.93384 -0.05895,2.65386 v 2.48474 h -0.36132 -0.36132 l -0.01515,-2.14957 c -0.01456,-2.06524 -0.01921,-2.15409 -0.119002,-2.26478 -0.243938,-0.2706 -0.633847,-0.21489 -0.745912,0.10658 -0.04081,0.11707 -0.05895,0.93384 -0.05895,2.65386 v 2.48474 h -0.389451 -0.38945 v -1.34105 c 0,-1.33464 -5.89e-4,-1.34158 -0.120183,-1.45395 -0.118187,-0.11103 -0.353488,-0.14707 -0.526576,-0.0806 -0.22371,0.0858 -0.235997,0.21496 -0.235997,2.47986 0,2.28065 0.0321,2.73682 0.233683,3.32106 0.187121,0.54233 0.422951,0.89874 0.934657,1.41256 0.378926,0.38049 0.550865,0.51035 0.90873,0.68637 0.637563,0.31358 1.005004,0.39917 1.713585,0.39917 0.406194,0 0.705094,-0.0291 0.934682,-0.091 1.472537,-0.3972 2.59027,-1.664 2.800251,-3.1737 0.03065,-0.22035 0.05572,-1.18291 0.05572,-2.13901 0,-2.06925 -0.0064,-2.0967 -0.4885,-2.0967 -0.108474,0 -0.208266,0.0424 -0.280287,0.11905 -0.106319,0.11317 -0.112535,0.17406 -0.125888,1.23326 l -0.01405,1.11422 -0.476991,0.0302 c -0.390975,0.0247 -0.536217,0.0593 -0.805415,0.19186 -0.632809,0.31153 -1.122327,0.98083 -1.174114,1.60531 l -0.02286,0.27569 H 25.907909 25.51778 l 0.027,-0.32454 c 0.100308,-1.20582 1.043341,-2.21539 2.336908,-2.50179 l 0.1428,-0.0316 0.0012,-0.7909 c 9.82e-4,-0.65956 0.01715,-0.82538 0.09751,-0.9986 0.299908,-0.64637 1.088454,-0.89774 1.705737,-0.54373 0.149901,0.086 0.330094,0.24348 0.400425,0.35002 0.225961,0.34229 0.246933,0.59735 0.222106,2.7012 -0.02112,1.78953 -0.03271,1.99542 -0.134608,2.39014 -0.42586,1.64968 -1.684224,2.91895 -3.304885,3.33353 -0.538642,0.13779 -1.390745,0.17493 -1.877592,0.0818 z m 2.422822,-3.63958 v -0.38945 h 0.415415 0.415415 v 0.38945 0.38946 h -0.415415 -0.415415 z"
       style="fill:#000000;stroke-width:0.0519267"
       id="path446"
       transform="translate(-21.33739,-171.44019)" /></g></svg>
