<?xml version="1.0" encoding="UTF-8" standalone="no"?>
<!-- Created with Inkscape (http://www.inkscape.org/) -->

<svg
   width="9.1552839mm"
   height="10.030276mm"
   viewBox="0 0 9.1552839 10.030277"
   version="1.1"
   id="svg5"
   xml:space="preserve"
   xmlns="http://www.w3.org/2000/svg"
   xmlns:svg="http://www.w3.org/2000/svg"><defs
     id="defs2" /><g
     id="layer3"
     style="display:inline"
     transform="translate(-0.01061,-4.7452623)"><path
       d="m 24.94698,186.13377 c -1.247705,-0.27135 -2.443906,-1.18575 -3.026301,-2.31337 -0.344193,-0.66642 -0.495406,-1.22301 -0.537969,-1.98014 L 21.348,181.22285 h 0.439354 0.439355 l 9.98e-4,0.41639 c 0.0033,1.39069 0.774903,2.676 1.980453,3.29911 0.612241,0.31644 1.061165,0.42568 1.742212,0.42394 1.066138,-0.003 1.822035,-0.32132 2.596047,-1.09417 0.371659,-0.3711 0.541239,-0.59367 0.701134,-0.92024 0.352221,-0.71937 0.386247,-0.96793 0.387204,-2.82859 l 8.68e-4,-1.65121 h -1.6987 -1.6987 l -0.167883,0.16788 c -0.09234,0.0923 -0.167882,0.22285 -0.167882,0.29002 0,0.0974 0.12909,0.42138 0.188135,0.4721 0.0071,0.006 0.491014,0.0255 1.075399,0.0431 l 1.062516,0.032 0.01667,0.40583 0.01665,0.40583 -0.349569,0.065 c -1.038106,0.19305 -1.856191,1.01526 -1.977683,1.98765 l -0.04038,0.32323 h -0.426622 c -0.495165,0 -0.483788,0.0221 -0.33984,-0.66048 0.109738,-0.52037 0.365489,-1.03564 0.697104,-1.40447 0.145524,-0.16186 0.254825,-0.29974 0.242895,-0.30641 -0.533736,-0.29821 -0.598449,-0.31697 -0.742273,-0.21512 -0.394396,0.27929 -0.924552,0.30628 -1.391345,0.0708 -0.303059,-0.15287 -0.325654,-0.15616 -0.453201,-0.066 -0.700585,0.49542 -1.738549,0.14958 -2.033745,-0.67761 -0.112482,-0.3152 -0.106496,-1.47265 0.0094,-1.81272 0.223229,-0.65514 1.069325,-1.05587 1.710138,-0.80998 0.04036,0.0155 0.113403,-0.0707 0.171494,-0.20238 0.150026,-0.34004 0.557313,-0.67245 0.924644,-0.75466 0.35831,-0.0802 0.799018,9e-5 1.039647,0.18937 l 0.147975,0.1164 0.2978,-0.16376 c 0.410417,-0.22568 0.869335,-0.22986 1.289721,-0.0118 l 0.297925,0.15457 0.245293,-0.13588 c 0.332928,-0.18442 0.617629,-0.22745 0.960596,-0.14517 0.648289,0.15552 1.036411,0.67617 1.036411,1.3903 v 0.39076 h 0.462535 0.462534 l -0.01999,2.25426 c -0.02258,2.54522 -0.02483,2.56169 -0.473794,3.46035 -0.586484,1.17394 -1.695125,2.06031 -2.98189,2.38405 -0.536706,0.13504 -1.52833,0.14863 -2.080582,0.0285 z m -1.884875,-6.43029 c 0.132775,-0.13278 0.140973,-0.17812 0.140973,-0.77977 0,-0.62946 -0.0025,-0.64125 -0.167882,-0.80668 -0.217844,-0.21784 -0.422758,-0.21784 -0.640602,0 -0.165429,0.16543 -0.167882,0.17722 -0.167882,0.80668 0,0.60165 0.0082,0.64699 0.140972,0.77977 0.09733,0.0973 0.20482,0.14097 0.347211,0.14097 0.142391,0 0.24988,-0.0436 0.34721,-0.14097 z m 1.837866,0 c 0.140013,-0.14002 0.140973,-0.14858 0.140973,-1.25843 v -1.11746 l -0.176707,-0.14868 c -0.231564,-0.19485 -0.423568,-0.18902 -0.631778,0.0192 l -0.167882,0.16788 v 1.04107 c 0,1.29843 0.04349,1.4218 0.505152,1.43286 0.128571,0.003 0.234477,-0.0407 0.330242,-0.13644 z m 1.676935,-1.6969 h 0.301904 l -0.0017,-0.33024 c -0.002,-0.34562 -0.05841,-0.4681 -0.267208,-0.57931 -0.202258,-0.10772 -0.360264,-0.0781 -0.539451,0.10107 -0.151153,0.15115 -0.167883,0.20512 -0.167883,0.54161 v 0.37372 l 0.186279,-0.0534 c 0.102454,-0.0294 0.322138,-0.0534 0.488184,-0.0534 z m 2.137943,-0.33024 c -0.002,-0.34562 -0.05841,-0.4681 -0.267208,-0.57931 -0.202258,-0.10772 -0.360263,-0.0781 -0.539451,0.10107 -0.145416,0.14542 -0.16788,0.21074 -0.16788,0.48818 v 0.32031 h 0.488181 0.488183 z m -1.376574,5.35324 v -0.43316 l 0.445108,0.0168 0.445108,0.0168 0.01687,0.41639 0.01687,0.41639 H 27.80025 27.338267 Z"
       style="display:inline;fill:#000000;stroke-width:0.0574332"
       id="path359"
       transform="translate(-21.33739,-171.44019)" /></g></svg>
