<?xml version="1.0" encoding="UTF-8" standalone="no"?>
<!-- Created with Inkscape (http://www.inkscape.org/) -->

<svg
   width="13.086481mm"
   height="13.959247mm"
   viewBox="0 0 13.086481 13.959247"
   version="1.1"
   id="svg5"
   xml:space="preserve"
   inkscape:export-filename="bitmap.svg"
   inkscape:export-xdpi="96"
   inkscape:export-ydpi="96"
   inkscape:version="1.2.2 (b0a8486541, 2022-12-01)"
   sodipodi:docname="rps.svg"
   xmlns:inkscape="http://www.inkscape.org/namespaces/inkscape"
   xmlns:sodipodi="http://sodipodi.sourceforge.net/DTD/sodipodi-0.dtd"
   xmlns="http://www.w3.org/2000/svg"
   xmlns:svg="http://www.w3.org/2000/svg"><sodipodi:namedview
     id="namedview7"
     pagecolor="#505050"
     bordercolor="#ffffff"
     borderopacity="1"
     inkscape:showpageshadow="0"
     inkscape:pageopacity="0"
     inkscape:pagecheckerboard="1"
     inkscape:deskcolor="#505050"
     inkscape:document-units="mm"
     showgrid="false"
     inkscape:zoom="2.1820712"
     inkscape:cx="-77.449351"
     inkscape:cy="8.2490433"
     inkscape:window-width="1920"
     inkscape:window-height="1011"
     inkscape:window-x="1920"
     inkscape:window-y="706"
     inkscape:window-maximized="1"
     inkscape:current-layer="layer1" /><defs
     id="defs2" /><g
     inkscape:label="scissors"
     inkscape:groupmode="layer"
     id="layer1"
     transform="translate(-21.337381,-163.85291)"
     style="display:inline"><path
       style="fill:#000000;stroke-width:0.0292524"
       d="m 23.309414,177.78783 c -0.877743,-0.12785 -1.595436,-0.7539 -1.890891,-1.64944 -0.0648,-0.1964 -0.06799,-0.24959 -0.07824,-1.30173 -0.0075,-0.7674 -6.54e-4,-1.13077 0.02279,-1.20952 0.04545,-0.15281 0.239394,-0.35609 0.397279,-0.41639 0.09449,-0.0361 0.183725,-0.0454 0.331941,-0.0349 0.195389,0.014 0.203354,0.0119 0.220481,-0.0563 0.0282,-0.11237 0.242013,-0.32281 0.382479,-0.37645 0.198684,-0.0759 0.475716,-0.0485 0.633908,0.0627 0.202689,0.14245 0.289928,0.31447 0.308228,0.60781 l 0.01546,0.24791 0.105729,-0.0163 c 0.05815,-0.009 0.11057,-0.0204 0.116489,-0.0253 0.0059,-0.005 -0.149567,-0.61193 -0.345519,-1.34878 -0.261541,-0.98349 -0.372711,-1.35723 -0.418079,-1.40554 -0.130535,-0.13902 -0.402632,-0.0336 -0.402632,0.15602 0,0.043 0.05924,0.30148 0.131635,0.57432 0.0724,0.27283 0.131636,0.5116 0.131636,0.53058 0,0.0322 -0.375906,0.15 -0.400368,0.12554 -0.03164,-0.0317 -0.301666,-1.11504 -0.301526,-1.20978 2.22e-4,-0.17656 0.05005,-0.31003 0.166288,-0.44584 0.211528,-0.24712 0.537508,-0.30737 0.83165,-0.15371 0.249018,0.13009 0.283575,0.20931 0.583361,1.33742 0.144882,0.5452 0.266721,0.99457 0.270752,0.9986 0.004,0.004 0.128618,-0.44946 0.276861,-1.00776 0.303622,-1.14347 0.327134,-1.1965 0.589509,-1.32955 0.441516,-0.22389 0.929434,0.0376 0.986312,0.52854 0.01308,0.11294 -0.04106,0.35052 -0.308766,1.35492 -0.178547,0.66989 -0.32463,1.23921 -0.32463,1.26517 0,0.0406 0.04535,0.0472 0.323655,0.0472 h 0.323656 l -0.01087,1.1189 c -0.01152,1.18633 -0.01208,1.19168 -0.167873,1.60806 -0.03427,0.0916 -0.126526,0.26491 -0.205019,0.38514 -0.498679,0.7639 -1.395464,1.16955 -2.295691,1.03842 z m 0.862044,-0.48101 c 0.486738,-0.14476 0.946348,-0.53034 1.166153,-0.97828 0.185422,-0.3779 0.207613,-0.533 0.208201,-1.45531 l 5.53e-4,-0.79713 h -0.878901 -0.878901 l -0.0718,0.0718 c -0.09296,0.093 -0.09345,0.22152 -0.0013,0.32879 l 0.07053,0.0821 0.514514,0.009 0.514513,0.009 v 0.21342 0.21341 l -0.164306,0.017 c -0.30833,0.0319 -0.640633,0.24984 -0.82608,0.54195 -0.09377,0.14771 -0.17971,0.40447 -0.17971,0.53692 v 0.0825 H 23.42553 23.206139 l 4.42e-4,-0.0951 c 0.0013,-0.29102 0.175565,-0.7097 0.397257,-0.95457 l 0.121935,-0.13467 -0.147346,-0.0806 -0.147346,-0.0806 -0.163497,0.08 c -0.222305,0.10877 -0.432138,0.10684 -0.639222,-0.006 l -0.149629,-0.0814 -0.09796,0.0606 c -0.141479,0.0874 -0.35003,0.12782 -0.493557,0.0956 l -0.119482,-0.0268 0.01185,0.45819 c 0.0095,0.36821 0.02423,0.49552 0.07488,0.64831 0.211923,0.63931 0.746888,1.11806 1.424815,1.27509 0.217529,0.0504 0.666814,0.0335 0.892197,-0.0335 z m 0.175514,-1.10993 v -0.21939 h 0.234019 0.234019 v 0.21939 0.2194 H 24.580991 24.346972 Z M 22.1265,174.52811 c 0.117295,-0.0607 0.143553,-0.14395 0.143553,-0.45537 0,-0.27322 -0.0411,-0.41127 -0.132947,-0.44651 -0.09751,-0.0374 -0.23006,-0.0171 -0.29664,0.0454 -0.06326,0.0594 -0.0677,0.086 -0.0677,0.40444 0,0.31621 0.0048,0.34516 0.06582,0.40072 0.06187,0.0563 0.123209,0.0889 0.176967,0.0943 0.01287,0.001 0.06279,-0.018 0.110952,-0.043 z m 1.006498,-0.0451 c 0.05334,-0.0523 0.05932,-0.10295 0.06776,-0.57347 0.0051,-0.28384 0.0015,-0.54711 -0.0081,-0.58505 -0.04779,-0.19042 -0.306332,-0.25606 -0.423235,-0.10743 -0.05655,0.0719 -0.06063,0.11481 -0.06063,0.63845 0,0.54493 0.002,0.56313 0.06582,0.62126 0.0362,0.0329 0.08556,0.0674 0.109697,0.0765 0.06805,0.0259 0.184136,-0.007 0.248646,-0.0703 z m 1.740518,-0.86193 c 0,-0.009 0.15138,-0.58543 0.336401,-1.28115 0.185022,-0.69572 0.336403,-1.29455 0.336403,-1.33074 0,-0.0968 -0.126093,-0.2094 -0.234612,-0.2094 -0.122774,0 -0.189651,0.0402 -0.229178,0.13783 -0.04173,0.10305 -0.706306,2.60552 -0.706306,2.6596 0,0.0308 0.0577,0.0401 0.248646,0.0401 0.136754,0 0.248646,-0.007 0.248646,-0.0162 z"
       id="path302"
       sodipodi:nodetypes="ssscsssssscsssssssscsssssssssscssssscsccccsscccccsssccccscccsscsscssscccccccccccsssssssssscssssssssssssss" /></g><g
     inkscape:groupmode="layer"
     id="layer2"
     inkscape:label="paper"
     style="display:inline"
     transform="translate(-0.2323265,12.942546)"><path
       d="m 6.4172518,-6.3185416 c -0.9180065,-0.175555 -1.6064625,-0.8178227 -1.8402325,-1.7167753 -0.052945,-0.2036037 -0.057135,-0.2913536 -0.06734,-1.4102665 -0.00756,-0.8284286 -0.00186,-1.2367626 0.018734,-1.3358016 0.039489,-0.190208 0.150529,-0.337785 0.3180274,-0.422665 0.1152164,-0.05838 0.1611136,-0.06705 0.3104955,-0.05861 l 0.1752927,0.0099 0.01041,-0.405262 c 0.00915,-0.356469 0.017618,-0.420111 0.070258,-0.528636 0.065924,-0.1359 0.1781654,-0.243203 0.3138935,-0.300069 0.090122,-0.03775 0.327383,-0.04987 0.4174401,-0.02126 0.039635,0.01257 0.061395,-0.0082 0.1067722,-0.101935 0.1034013,-0.213597 0.3004211,-0.333241 0.5477419,-0.332622 0.2520151,5.02e-4 0.4288419,0.106217 0.5377283,0.321091 0.053825,0.106217 0.075513,0.127274 0.117409,0.113979 0.09146,-0.02905 0.3282239,-0.01729 0.4190501,0.02076 0.1354677,0.05676 0.2478436,0.164014 0.3143962,0.300069 0.055152,0.112753 0.061188,0.165512 0.070102,0.612782 l 0.00976,0.489408 H 8.0686111 7.8700336 v -0.418467 c 0,-0.48126 -0.023429,-0.575263 -0.1547795,-0.621051 -0.095617,-0.03333 -0.1744085,-0.01015 -0.2497964,0.07347 -0.050156,0.05564 -0.052502,0.100301 -0.059818,1.138421 l -0.00762,1.0805096 H 7.2164012 7.0347789 v -1.2489866 c 0,-0.864591 -0.00912,-1.275151 -0.029637,-1.333998 -0.065519,-0.187946 -0.345042,-0.187946 -0.4105621,0 -0.020514,0.05885 -0.029632,0.469407 -0.029632,1.333998 v 1.2489866 H 6.3833256 6.2017034 l -0.00762,-1.0805096 c -0.00732,-1.03812 -0.00966,-1.082782 -0.059818,-1.138421 -0.1226186,-0.136021 -0.3186115,-0.108018 -0.3749424,0.05357 -0.020514,0.05885 -0.029632,0.469407 -0.029632,1.333998 v 1.2489872 H 5.5339331 5.3381709 v -0.6740962 c 0,-0.670874 -2.961e-4,-0.674363 -0.060411,-0.730847 -0.059408,-0.05581 -0.1776855,-0.07393 -0.2646904,-0.04051 -0.1124508,0.04313 -0.118627,0.108053 -0.118627,1.2465343 0,1.1463986 0.016135,1.3756984 0.1174638,1.6693743 0.094059,0.2726092 0.2126019,0.4517634 0.4698176,0.7100417 0.1904722,0.1912583 0.2768995,0.2565341 0.4567851,0.3450129 0.3204794,0.1576251 0.5051784,0.200648 0.8613559,0.200648 0.2041787,0 0.3544247,-0.014628 0.4698301,-0.045742 0.74019,-0.1996577 1.3020331,-0.8364313 1.4075828,-1.5953017 0.015407,-0.1107619 0.028008,-0.5946052 0.028008,-1.0752014 0,-1.0401361 -0.00322,-1.0539341 -0.2455509,-1.0539341 -0.054526,0 -0.1046876,0.02131 -0.1408899,0.05984 -0.053443,0.05689 -0.056567,0.08749 -0.063279,0.6199147 l -0.00706,0.5600773 -0.2397658,0.01518 c -0.1965287,0.012416 -0.2695365,0.029808 -0.4048524,0.096441 -0.3180897,0.1565947 -0.5641523,0.4930271 -0.5901837,0.8069301 l -0.011491,0.1385792 H 6.8061034 6.61 L 6.623572,-8.324141 c 0.050421,-0.6061212 0.524449,-1.1135947 1.1746774,-1.2575574 l 0.07178,-0.015884 6.032e-4,-0.3975562 c 4.936e-4,-0.3315364 0.00862,-0.4148884 0.049015,-0.5019594 0.1507527,-0.324907 0.5471257,-0.451261 0.857411,-0.273313 0.07535,0.04323 0.1659261,0.122388 0.2012789,0.175942 0.1135823,0.172056 0.1241241,0.300266 0.1116445,1.3577937 -0.010616,0.8995306 -0.016442,1.0030239 -0.067663,1.2014351 -0.2140641,0.8292332 -0.8465972,1.4672484 -1.6612437,1.6756424 -0.2707554,0.069262 -0.6990761,0.087931 -0.9437961,0.041118 z M 7.635115,-8.148024 v -0.1957622 h 0.2088138 0.2088138 v 0.1957622 0.1957671 H 7.8439288 7.635115 Z"
       style="fill:#000000;stroke-width:0.0261016"
       id="path446" /></g><g
     inkscape:groupmode="layer"
     id="layer3"
     inkscape:label="rock"
     style="display:inline"
     transform="translate(8.8843628e-6,12.942546)"><path
       d="M 10.293482,0.97550113 C 9.6663068,0.8391035 9.0650208,0.37946838 8.7722723,-0.18734456 8.5992592,-0.52232929 8.5232505,-0.80210653 8.5018556,-1.1826878 l -0.017447,-0.3103491 h 0.2208465 0.2208476 l 5.016e-4,0.2093037 c 0.00166,0.69904855 0.3895152,1.34512644 0.9955006,1.65834083 0.3077501,0.15906271 0.5334081,0.21397362 0.8757451,0.21309899 0.535908,-0.001508 0.91587,-0.1615157 1.304937,-0.54999887 0.186819,-0.18653827 0.272061,-0.29841599 0.352434,-0.46257067 0.177049,-0.36160074 0.194152,-0.48654267 0.194634,-1.42182788 l 4.36e-4,-0.8300023 h -0.853874 -0.853874 l -0.08439,0.084387 c -0.04642,0.046396 -0.08439,0.1120185 -0.08439,0.1457824 0,0.048959 0.06489,0.2118122 0.09457,0.2373072 0.0036,0.00302 0.246815,0.012818 0.540563,0.021665 l 0.534088,0.016085 0.0084,0.2039958 0.0084,0.2039957 -0.175716,0.032673 c -0.521817,0.097039 -0.933038,0.5103339 -0.994108,0.99911846 l -0.0203,0.16247579 h -0.214448 c -0.248901,0 -0.243182,0.0111088 -0.170825,-0.33199891 0.05516,-0.26157074 0.183718,-0.52057794 0.350409,-0.70597534 0.07315,-0.081361 0.128091,-0.1506683 0.122094,-0.154021 -0.268289,-0.1498992 -0.300818,-0.1593291 -0.373113,-0.1081329 -0.198248,0.1403888 -0.464738,0.1539556 -0.6993774,0.035589 -0.1523365,-0.076842 -0.1636942,-0.078496 -0.2278074,-0.033176 -0.3521582,0.2490293 -0.8739044,0.075188 -1.022288,-0.3406096 -0.056541,-0.1584394 -0.053532,-0.7402467 0.00472,-0.9111874 0.1122085,-0.3293147 0.5375097,-0.5307468 0.8596228,-0.407147 0.020288,0.00779 0.057004,-0.035538 0.086204,-0.101729 0.075413,-0.1709255 0.2801406,-0.3380158 0.4647844,-0.3793397 0.1801096,-0.040314 0.4016376,4.53e-5 0.5225926,0.095189 l 0.07438,0.05851 0.149693,-0.082316 c 0.206302,-0.113441 0.436983,-0.1155421 0.648296,-0.00593 l 0.149756,0.077697 0.123299,-0.068302 c 0.167351,-0.092701 0.31046,-0.1143307 0.482856,-0.072972 0.325871,0.078174 0.520966,0.3398857 0.520966,0.6988525 v 0.1964207 h 0.232499 0.232499 l -0.01005,1.1331332 c -0.01135,1.2793883 -0.01248,1.28766717 -0.238159,1.73939037 -0.294804,0.5900963 -0.852077,1.03564177 -1.498886,1.19837392 -0.269782,0.0678796 -0.768235,0.0747108 -1.045832,0.0143259 z M 9.346025,-2.2567684 c 0.066741,-0.066744 0.070862,-0.089534 0.070862,-0.3919616 0,-0.3164063 -0.00126,-0.3223327 -0.084388,-0.4054882 -0.1095021,-0.1095002 -0.2125048,-0.1095002 -0.3220069,0 -0.083155,0.083156 -0.084388,0.089082 -0.084388,0.4054882 0,0.3024273 0.00412,0.325218 0.070861,0.3919616 0.048924,0.048909 0.1029555,0.07086 0.1745302,0.07086 0.071575,0 0.1256054,-0.021916 0.1745297,-0.07086 z m 0.923827,0 c 0.07038,-0.070383 0.07086,-0.074686 0.07086,-0.6325663 v -0.5617059 l -0.08882,-0.074736 c -0.116398,-0.097944 -0.212912,-0.095013 -0.3175712,0.00965 l -0.084388,0.084387 v 0.5233074 c 0,0.6526729 0.021861,0.7146864 0.2539212,0.7202459 0.06463,0.00151 0.117863,-0.020458 0.166,-0.068583 z m 0.842934,-0.852969 h 0.151756 l -8.55e-4,-0.1659994 c -10e-4,-0.1737305 -0.02936,-0.2352966 -0.134315,-0.2911978 -0.101668,-0.054147 -0.181092,-0.039258 -0.271163,0.050804 -0.07598,0.075978 -0.08439,0.1031062 -0.08439,0.2722473 v 0.1878553 l 0.09364,-0.026842 c 0.0515,-0.014778 0.161927,-0.026842 0.245393,-0.026842 z m 1.074665,-0.1659994 c -10e-4,-0.1737305 -0.02936,-0.2352966 -0.134316,-0.2911978 -0.101668,-0.054147 -0.181091,-0.039258 -0.271162,0.050804 -0.0731,0.073097 -0.08439,0.1059312 -0.08439,0.24539 v 0.161008 h 0.245391 0.245391 z m -0.691953,2.69087622 v -0.21773354 l 0.223739,0.008445 0.22374,0.008445 0.0085,0.20930388 0.0085,0.20930388 h -0.23222 -0.232222 z"
       style="display:inline;fill:#000000;stroke-width:0.0288695"
       id="path359" /></g></svg>
