<?xml version="1.0" encoding="UTF-8" standalone="no"?>
<!-- Created with Inkscape (http://www.inkscape.org/) -->

<svg
   width="9.2536621mm"
   height="14.828032mm"
   viewBox="0 0 9.2536621 14.828032"
   version="1.1"
   id="svg5"
   xml:space="preserve"
   xmlns="http://www.w3.org/2000/svg"
   xmlns:svg="http://www.w3.org/2000/svg"><defs
     id="defs2" /><g
     id="layer1"
     transform="translate(-21.33739,-171.44019)"
     style="display:inline"><path
       style="fill:#000000;stroke-width:0.0581948"
       d="m 25.260542,186.21984 c -1.746185,-0.25434 -3.173967,-1.49982 -3.761746,-3.28141 -0.128905,-0.39071 -0.135263,-0.49653 -0.155651,-2.58967 -0.01488,-1.52667 -0.0013,-2.24956 0.04534,-2.40621 0.09041,-0.30401 0.476251,-0.70841 0.790348,-0.82837 0.187981,-0.0718 0.365503,-0.0904 0.660365,-0.0694 0.388708,0.0278 0.404552,0.0237 0.438625,-0.11204 0.05611,-0.22354 0.481462,-0.64219 0.760906,-0.7489 0.395263,-0.15096 0.946391,-0.0964 1.261098,0.12476 0.40323,0.28339 0.576784,0.62562 0.61319,1.20918 l 0.03076,0.4932 0.210338,-0.0324 c 0.115692,-0.0178 0.219969,-0.0406 0.231744,-0.0504 0.01181,-0.009 -0.297548,-1.21738 -0.687376,-2.68327 -0.520312,-1.95656 -0.741473,-2.70007 -0.831729,-2.79619 -0.259687,-0.27656 -0.800998,-0.0668 -0.800998,0.3104 0,0.0856 0.117848,0.59976 0.261876,1.14254 0.144032,0.54278 0.261876,1.01779 0.261876,1.05555 0,0.064 -0.747828,0.29841 -0.796492,0.24975 -0.06294,-0.063 -0.600136,-2.21827 -0.599857,-2.40675 4.4e-4,-0.35124 0.09956,-0.61677 0.330814,-0.88696 0.420814,-0.49162 1.06932,-0.61148 1.654488,-0.30578 0.495397,0.2588 0.564145,0.4164 1.16054,2.66067 0.288229,1.08462 0.530615,1.9786 0.538634,1.98662 0.008,0.008 0.255875,-0.89416 0.550789,-2.00484 0.604027,-2.27484 0.650803,-2.38033 1.172772,-2.64502 0.878353,-0.44541 1.849019,0.0747 1.962174,1.05148 0.02602,0.22468 -0.08168,0.69733 -0.614262,2.69548 -0.355201,1.33268 -0.64582,2.4653 -0.64582,2.51693 0,0.0807 0.09023,0.0939 0.643881,0.0939 h 0.643883 l -0.02163,2.22595 c -0.02292,2.36008 -0.02403,2.37074 -0.333967,3.19909 -0.06817,0.1822 -0.25171,0.527 -0.407865,0.76619 -0.992075,1.51971 -2.776142,2.3267 -4.567057,2.06584 z m 1.714955,-0.95692 c 0.968319,-0.288 1.882669,-1.05506 2.319949,-1.94621 0.36888,-0.75178 0.413027,-1.06035 0.414197,-2.8952 l 0.0011,-1.58581 h -1.748489 -1.748491 l -0.142841,0.14284 c -0.184931,0.18494 -0.185916,0.44069 -0.0025,0.6541 l 0.14032,0.16328 1.023576,0.0182 1.023576,0.0182 v 0.42457 0.42457 l -0.326871,0.0338 c -0.613393,0.0634 -1.274478,0.49702 -1.643408,1.07815 -0.186553,0.29386 -0.357515,0.80466 -0.357515,1.06816 v 0.16403 h -0.436463 -0.436459 l 8.8e-4,-0.18913 c 0.0026,-0.57895 0.34927,-1.41187 0.790305,-1.89902 l 0.242577,-0.26792 -0.29313,-0.1603 -0.293131,-0.1603 -0.325262,0.15913 c -0.442253,0.21638 -0.859696,0.21254 -1.271671,-0.0119 l -0.297672,-0.16201 -0.194881,0.12046 c -0.28146,0.17394 -0.696351,0.25428 -0.981886,0.19013 l -0.237697,-0.0534 0.02357,0.91152 c 0.01894,0.73252 0.0482,0.98579 0.148968,1.28976 0.421602,1.27184 1.485863,2.22427 2.834533,2.53666 0.432754,0.10023 1.326564,0.0667 1.774941,-0.0667 z m 0.349169,-2.2081 v -0.43646 h 0.465558 0.465558 v 0.43646 0.43646 h -0.465558 -0.465558 z m -4.417417,-3.31989 c 0.233347,-0.12066 0.285585,-0.28637 0.285585,-0.90591 0,-0.54355 -0.08176,-0.81818 -0.264485,-0.88828 -0.193981,-0.0744 -0.457682,-0.034 -0.590137,0.0904 -0.125842,0.1182 -0.134689,0.17106 -0.134689,0.80458 0,0.62908 0.0095,0.68667 0.130939,0.79719 0.123076,0.11204 0.245112,0.17697 0.352058,0.18754 0.0256,0.002 0.124923,-0.0359 0.220729,-0.0855 z m 2.002332,-0.0897 c 0.106113,-0.10409 0.118015,-0.20481 0.134803,-1.14086 0.01018,-0.56467 0.0029,-1.08843 -0.01603,-1.16391 -0.09508,-0.37882 -0.609419,-0.50939 -0.841986,-0.21371 -0.112498,0.14302 -0.120612,0.22841 -0.120612,1.27013 0,1.08408 0.0039,1.1203 0.130936,1.23594 0.07202,0.0655 0.17022,0.13402 0.218231,0.15224 0.135371,0.0515 0.366321,-0.0139 0.494657,-0.13983 z m 3.462592,-1.71473 c 0,-0.0178 0.301157,-1.16465 0.669239,-2.54872 0.368082,-1.38406 0.66924,-2.57539 0.66924,-2.64738 0,-0.19268 -0.250849,-0.41658 -0.466738,-0.41658 -0.244246,0 -0.377291,0.08 -0.455927,0.2742 -0.08301,0.205 -1.405127,5.18343 -1.405127,5.29102 0,0.0612 0.114791,0.0797 0.494657,0.0797 0.272059,0 0.494656,-0.0145 0.494656,-0.0322 z"
       id="path302" /></g></svg>
