<?xml version="1.0" encoding="UTF-8" standalone="no"?>
<!-- Created with Inkscape (http://www.inkscape.org/) -->

<svg
   width="50mm"
   height="62.570625mm"
   viewBox="0 0 50 62.570624"
   version="1.1"
   id="svg5"
   xml:space="preserve"
   inkscape:version="1.2.2 (b0a8486541, 2022-12-01)"
   sodipodi:docname="storage.svg"
   xmlns:inkscape="http://www.inkscape.org/namespaces/inkscape"
   xmlns:sodipodi="http://sodipodi.sourceforge.net/DTD/sodipodi-0.dtd"
   xmlns="http://www.w3.org/2000/svg"
   xmlns:svg="http://www.w3.org/2000/svg"><sodipodi:namedview
     id="namedview7"
     pagecolor="#505050"
     bordercolor="#ffffff"
     borderopacity="1"
     inkscape:showpageshadow="0"
     inkscape:pageopacity="0"
     inkscape:pagecheckerboard="1"
     inkscape:deskcolor="#505050"
     inkscape:document-units="mm"
     showgrid="false"
     inkscape:zoom="0.77147868"
     inkscape:cx="221.65227"
     inkscape:cy="307.20227"
     inkscape:window-width="1499"
     inkscape:window-height="773"
     inkscape:window-x="2384"
     inkscape:window-y="783"
     inkscape:window-maximized="0"
     inkscape:current-layer="layer1" /><defs
     id="defs2" /><g
     inkscape:label="Layer 1"
     inkscape:groupmode="layer"
     id="layer1"
     transform="translate(-918.92905,21.570253)"><path
       style="fill:#000000;stroke-width:0.122243"
       d="m 939.34371,40.864114 c -10.55877,-0.653068 -18.61093,-3.801912 -20.19039,-7.895571 -0.21461,-0.556274 -0.22427,-1.55558 -0.22427,-23.2573652 0,-21.7017868 0.01,-22.7010918 0.22427,-23.2573668 0.95093,-2.464665 4.3928,-4.707511 9.49408,-6.186688 8.06496,-2.338534 20.94372,-2.459706 29.53402,-0.277877 4.56611,1.159726 8.25175,3.105532 9.75798,5.151656 1.08839,1.478421 0.98716,-1.040695 0.98716,24.5702758 0,21.7017852 -0.01,22.7010912 -0.22427,23.2573652 -1.0097,2.616955 -4.99671,5.071828 -10.46562,6.443899 -5.30555,1.33107 -12.23477,1.86349 -18.89296,1.451672 z m 10.94076,-2.235982 c 8.94319,-0.910247 15.64103,-3.543978 16.49452,-6.486012 0.10044,-0.346248 0.13117,-2.058144 0.10553,-5.884982 l -0.036,-5.396694 -0.91684,0.672375 c -3.03211,2.223655 -8.58625,3.87656 -15.40267,4.583777 -2.4573,0.254953 -11.29181,0.214794 -13.7523,-0.06252 -6.87253,-0.774556 -11.84088,-2.316022 -15.06653,-4.674513 l -0.764,-0.558626 v 5.489889 c 0,3.833393 0.0425,5.615268 0.14134,5.905417 0.38699,1.137761 1.6015,2.219095 3.61582,3.21933 3.55022,1.762903 8.77005,2.937043 14.9793,3.369412 2.18268,0.151992 8.388,0.04848 10.60192,-0.176857 z m -1.52804,-14.5009 c 8.77206,-0.560256 16.36242,-3.169292 17.83868,-6.131692 l 0.31445,-0.631043 v -5.538064 c 0,-3.0954017 -0.0473,-5.5380653 -0.10728,-5.5380653 -0.059,0 -0.17405,0.080426 -0.25559,0.1787257 -0.26701,0.3217001 -2.10428,1.4375244 -3.24367,1.9699674 -3.22801,1.5084498 -7.51666,2.5353672 -12.80029,3.0650422 -2.65445,0.266097 -9.79185,0.303308 -12.44261,0.06487 -5.78257,-0.520158 -10.67279,-1.6923765 -13.99685,-3.3551231 -0.88385,-0.4421316 -2.54824,-1.4964395 -2.7543,-1.7447595 -0.0816,-0.0983 -0.19664,-0.1787257 -0.25564,-0.1787257 -0.0599,0 -0.10723,2.4426636 -0.10723,5.5380653 v 5.538064 l 0.31445,0.631043 c 0.75268,1.510473 3.07083,2.953178 6.60183,4.108726 5.59064,1.829564 12.87682,2.535016 20.89405,2.022966 z M 948.08409,9.5874762 c 9.11839,-0.6239187 16.28102,-2.9020185 18.28901,-5.8168876 l 0.47533,-0.6899651 0.0351,-5.7286728 0.0351,-5.7286732 -0.9057,0.6497974 c -3.49196,2.5053811 -9.33713,4.1531203 -16.76762,4.7267372 -2.20537,0.1702504 -8.4464,0.1707526 -10.57406,8.779e-4 -7.67898,-0.6132099 -13.38135,-2.2247289 -16.88218,-4.7710049 l -0.84305,-0.6132053 0.006,5.5328675 c 0.005,4.1820018 0.0439,5.640021 0.16221,5.9717452 0.95916,2.6832424 7.20407,5.2066309 15.23503,6.1560391 3.54047,0.4185454 8.31066,0.5447004 11.73535,0.3103677 z M 929.31973,2.7987566 c -0.7001,-0.1914918 -1.03904,-0.535654 -1.03904,-1.0549677 0,-0.84677018 0.58926,-1.19439572 1.61569,-0.95312294 0.9246,0.21734974 1.27356,0.42646724 1.42197,0.85218924 0.1489,0.4271741 0.0864,0.6787897 -0.26562,1.0698984 -0.28779,0.3197356 -0.78775,0.3445471 -1.733,0.086003 z m -5.1484,-1.81159699 c -0.99011,-0.47688904 -1.24307,-0.86599812 -1.00563,-1.54699306 0.2494,-0.71547835 0.95587,-0.79871995 2.05779,-0.24246942 0.39896,0.20139107 0.78244,0.47282232 0.8522,0.60317988 0.21258,0.39723927 0.14748,0.92465406 -0.14821,1.20066209 -0.47649,0.4447698 -0.80854,0.4420498 -1.75615,-0.0143781 z m 24.89068,-6.07650031 c 6.15671,-0.4787472 11.61303,-1.8288807 14.89971,-3.6868526 1.20643,-0.6819934 2.46909,-1.9162937 2.76691,-2.7047357 0.19359,-0.51248 0.20412,-0.670039 0.0767,-1.146562 -0.80553,-3.01191 -7.34919,-5.613731 -16.58193,-6.593168 -2.74668,-0.291371 -9.84444,-0.291371 -12.59106,0 -9.22584,0.978702 -15.77698,3.583521 -16.58196,6.593168 -0.2177,0.81397 0.0846,1.533205 1.04292,2.4814 3.77772,3.7377483 15.54842,5.9448021 26.96876,5.0567503 z m -24.63754,-6.4031233 c -0.19266,-0.192662 -0.30008,-0.439067 -0.30008,-0.688465 0,-0.579237 0.65043,-1.112779 2.37128,-1.945088 2.8698,-1.388048 6.21849,-2.296837 10.58579,-2.872856 1.78567,-0.235515 6.43181,-0.487058 7.0061,-0.379313 0.54066,0.101425 0.81819,0.464341 0.81819,1.069886 0,0.721686 -0.40413,0.95916 -1.6362,0.961509 -3.71216,0.0071 -8.6174,0.665621 -11.84083,1.589664 -2.1052,0.603488 -4.48216,1.597382 -5.53178,2.313057 -0.50629,0.345202 -1.09837,0.325743 -1.47247,-0.04839 z"
       id="path302" /></g></svg>
