<?xml version="1.0" encoding="UTF-8" standalone="no"?>
<!-- Created with Inkscape (http://www.inkscape.org/) -->

<svg
   width="16.933332mm"
   height="16.933332mm"
   viewBox="0 0 16.933333 16.933332"
   version="1.1"
   id="svg367"
   inkscape:version="1.2.2 (b0a8486541, 2022-12-01)"
   sodipodi:docname="todo.svg"
   xml:space="preserve"
   xmlns:inkscape="http://www.inkscape.org/namespaces/inkscape"
   xmlns:sodipodi="http://sodipodi.sourceforge.net/DTD/sodipodi-0.dtd"
   xmlns="http://www.w3.org/2000/svg"
   xmlns:svg="http://www.w3.org/2000/svg"><sodipodi:namedview
     id="namedview369"
     pagecolor="#505050"
     bordercolor="#ffffff"
     borderopacity="1"
     inkscape:showpageshadow="0"
     inkscape:pageopacity="0"
     inkscape:pagecheckerboard="1"
     inkscape:deskcolor="#505050"
     inkscape:document-units="mm"
     showgrid="false"
     inkscape:zoom="8.7282848"
     inkscape:cx="8.3636134"
     inkscape:cy="25.892831"
     inkscape:window-width="1920"
     inkscape:window-height="1043"
     inkscape:window-x="0"
     inkscape:window-y="0"
     inkscape:window-maximized="1"
     inkscape:current-layer="layer1" /><defs
     id="defs364" /><g
     inkscape:label="Layer 1"
     inkscape:groupmode="layer"
     id="layer1"
     transform="translate(-40.639576,-107.1136)"><path
       style="fill:#000000;stroke-width:0.0330729"
       d="m 41.779091,123.70119 -0.08118,-0.0812 v -8.03972 -8.03973 l 0.08118,-0.0812 0.08118,-0.0812 h 5.393892 5.393891 l 0.08118,0.0812 0.08118,0.0812 v 8.03973 8.03972 l -0.08118,0.0812 -0.08118,0.0812 h -5.393891 -5.393892 z m 10.502154,-8.1209 v -7.67292 h -5.027083 -5.027083 v 7.67292 7.67291 h 5.027083 5.027083 z m -9.443821,6.79798 -0.08118,-0.0812 v -0.89597 -0.89598 l 0.08118,-0.0812 0.08118,-0.0812 h 0.895976 0.895975 l 0.08118,0.0812 0.08118,0.0812 v 0.89598 0.89597 l -0.08118,0.0812 -0.08118,0.0812 h -0.895976 -0.895976 z m 2.564655,-0.44798 v -0.26459 h 3.174999 3.175 v 0.26459 0.26458 h -3.175 -3.174999 z m 1.587499,-1.05834 v -0.26458 h 2.38125 2.38125 v 0.26458 0.26459 h -2.38125 -2.38125 z m -4.152154,-1.40409 -0.08118,-0.0812 v -0.89598 -0.89597 l 0.08118,-0.0812 0.08118,-0.0812 h 0.895976 0.895975 l 0.08118,0.0812 0.08118,0.0812 v 0.89597 0.89598 l -0.08118,0.0812 -0.08118,0.0812 h -0.895976 -0.895976 z m 1.506321,-0.97716 v -0.52916 h -0.529166 -0.529167 v 0.52916 0.52917 h 0.529167 0.529166 z m 1.563675,0.47901 c -0.06265,-0.0439 -0.439196,-0.54693 -0.439196,-0.58674 0,-0.008 0.09141,-0.0791 0.203141,-0.15747 l 0.203141,-0.1425 0.08914,0.10922 0.08914,0.10922 0.214508,-0.27744 c 0.11798,-0.15259 0.340987,-0.44306 0.495571,-0.64548 l 0.281062,-0.36804 0.196069,0.14667 c 0.107838,0.0807 0.196069,0.16029 0.196069,0.17693 0,0.0457 -1.179959,1.58693 -1.25544,1.6398 -0.08543,0.0598 -0.18396,0.0583 -0.273203,-0.004 z m -3.069996,-2.41227 -0.08118,-0.0812 v -0.89597 -0.89598 l 0.08118,-0.0812 0.08118,-0.0812 h 0.895976 0.895975 l 0.08118,0.0812 0.08118,0.0812 v 0.89598 0.89597 l -0.08118,0.0812 -0.08118,0.0812 h -0.895976 -0.895976 z m 2.564655,-0.44799 v -0.26458 h 3.174999 3.175 v 0.26458 0.26459 h -3.175 -3.174999 z m 1.587499,-1.05833 v -0.26458 h 2.38125 2.38125 v 0.26458 0.26458 h -2.38125 -2.38125 z m -4.152154,-1.4041 -0.08118,-0.0812 v -0.89597 -0.89598 l 0.08118,-0.0812 0.08118,-0.0812 h 0.895976 0.895975 l 0.08118,0.0812 0.08118,0.0812 v 0.89598 0.89597 l -0.08118,0.0812 -0.08118,0.0812 h -0.895976 -0.895976 z m 1.506321,-0.97715 v -0.52917 h -0.529166 -0.529167 v 0.52917 0.52917 h 0.529167 0.529166 z m 1.563675,0.479 c -0.06265,-0.0439 -0.439196,-0.54692 -0.439196,-0.58673 0,-0.008 0.09141,-0.0791 0.203141,-0.15747 l 0.203141,-0.1425 0.08914,0.10922 0.08914,0.10922 0.214508,-0.27744 c 0.11798,-0.15259 0.340987,-0.44306 0.495571,-0.64548 l 0.281062,-0.36805 0.196069,0.14668 c 0.107838,0.0807 0.196069,0.16029 0.196069,0.17692 0,0.0457 -1.179959,1.58694 -1.25544,1.63981 -0.08543,0.0598 -0.18396,0.0583 -0.273203,-0.004 z m -3.069996,-2.41226 -0.08118,-0.0812 v -0.89598 -0.89597 l 0.08118,-0.0812 0.08118,-0.0812 h 0.895976 0.895975 l 0.08118,0.0812 0.08118,0.0812 v 0.89597 0.89598 l -0.08118,0.0812 -0.08118,0.0812 h -0.895976 -0.895976 z m 2.564655,-0.44799 v -0.26458 h 3.174999 3.175 v 0.26458 0.26458 h -3.175 -3.174999 z m 1.587499,-1.05833 v -0.26459 h 2.38125 2.38125 v 0.26459 0.26458 h -2.38125 -2.38125 z m 7.232256,13.15475 c -0.0539,-0.0543 -0.183069,-0.43832 -0.478054,-1.4212 l -0.404202,-1.34678 v -4.58304 -4.58304 l 0.08118,-0.0812 c 0.04465,-0.0447 0.10418,-0.0812 0.132292,-0.0812 0.04452,0 0.05111,-0.0919 0.05111,-0.71257 0,-0.94474 -0.06333,-0.87493 0.79375,-0.87493 0.857084,0 0.79375,-0.0698 0.79375,0.87493 0,0.62066 0.0066,0.71257 0.05111,0.71257 0.02811,0 0.08764,0.0365 0.132291,0.0812 0.0782,0.0782 0.08118,0.0976 0.08118,0.52917 v 0.44798 h 0.186333 c 0.102482,0 0.24759,0.0181 0.322461,0.0402 0.181664,0.0537 0.455645,0.32766 0.509319,0.50932 0.02808,0.0951 0.04022,0.47181 0.04022,1.24851 v 1.11237 H 56.24999 55.985407 v -1.10945 -1.10944 l -0.08118,-0.0812 c -0.06667,-0.0667 -0.113955,-0.0812 -0.264583,-0.0812 h -0.183405 v 3.83728 3.83727 l -0.413433,1.37998 c -0.440214,1.46936 -0.466061,1.5288 -0.664784,1.5288 -0.04529,0 -0.115574,-0.0335 -0.156193,-0.0744 z m 0.391051,-1.81515 c 0.109141,-0.36602 0.20325,-0.68592 0.209131,-0.71088 0.0086,-0.0367 -0.07245,-0.0454 -0.424105,-0.0454 -0.351652,0 -0.432753,0.009 -0.424104,0.0454 0.04268,0.18115 0.410966,1.37638 0.424104,1.37638 0.0091,0 0.105834,-0.29947 0.214974,-0.6655 z m 0.314193,-9.48752 v -0.26458 h -0.529167 -0.529166 v 0.26458 0.26458 h 0.529166 0.529167 z"
       id="path751" /></g></svg>
